<?xml version="1.0" encoding="utf-8"?>
<!-- Generator: Adobe Illustrator 26.0.1, SVG Export Plug-In . SVG Version: 6.00 Build 0)  -->
<svg version="1.1" id="Layer_1" xmlns="http://www.w3.org/2000/svg" xmlns:xlink="http://www.w3.org/1999/xlink" x="0px" y="0px"
	 viewBox="0 0 11.9 11.4" style="enable-background:new 0 0 11.9 11.4;" xml:space="preserve">
<style type="text/css">
	.st0{fill-rule:evenodd;clip-rule:evenodd;fill:#9BA3BF;}
	.st1{fill:#9BA3BF;}
</style>
<path class="st0" d="M1.4,0C0.7-0.1,0.1,0.5,0,1.2s0.5,1.4,1.2,1.4c0.1,0,0.1,0,0.2,0h0c0.7,0.1,1.4-0.5,1.4-1.2S2.4,0.1,1.7,0
	C1.6,0,1.5,0,1.4,0z"/>
<rect x="0.2" y="3.7" class="st1" width="2.5" height="7.7"/>
<path class="st0" d="M9,3.5C8,3.5,7.1,4,6.7,4.8v0h0l0,0V3.7H4.1c0,0.7,0,7.7,0,7.7h2.6V7.1c0-0.2,0-0.4,0.1-0.6
	c0.2-0.6,0.7-0.9,1.3-0.9c0.9,0,1.3,0.7,1.3,1.7v4.1h2.6V7C11.9,4.6,10.6,3.5,9,3.5z"/>
</svg>
