<?xml version="1.0" encoding="utf-8"?>
<!-- Generator: Adobe Illustrator 26.0.1, SVG Export Plug-In . SVG Version: 6.00 Build 0)  -->
<svg version="1.1" id="Layer_1" xmlns="http://www.w3.org/2000/svg" xmlns:xlink="http://www.w3.org/1999/xlink" x="0px" y="0px"
	 viewBox="0 0 14.5 14.5" style="enable-background:new 0 0 14.5 14.5;" xml:space="preserve">
<style type="text/css">
	.st0{clip-path:url(#SVGID_00000098203374519855157800000018143444027687447982_);}
	.st1{fill:#9BA3BF;}
</style>
<g>
	<defs>
		<rect id="SVGID_1_" width="14.5" height="14.5"/>
	</defs>
	<clipPath id="SVGID_00000026871038140860549790000002806631174150848943_">
		<use xlink:href="#SVGID_1_"  style="overflow:visible;"/>
	</clipPath>
	<g style="clip-path:url(#SVGID_00000026871038140860549790000002806631174150848943_);">
		<path class="st1" d="M7.3,14.5c-4,0-7.3-3.2-7.3-7.3C0,3.2,3.2,0,7.3,0c4,0,7.3,3.2,7.3,7.3c0,0,0,0,0,0
			C14.5,11.3,11.3,14.5,7.3,14.5z M6.8,4.8c-0.6,0-1,0.6-1,1.4c0,0.3,0.1,0.6,0.2,0.8c0,0,0,0.1-0.1,0.2C5.7,7.9,5.3,9.5,5.2,9.9
			c-0.1,0.7-0.1,1.3,0,2v0c0,0,0,0.1,0.1,0.1c0,0,0,0,0.1,0l0,0c0.4-0.5,0.7-1.1,0.9-1.7c0.1-0.2,0.4-1.4,0.4-1.4
			C7,9.2,7.4,9.4,8,9.4c0.8,0,1.6-0.4,2.1-1c0.5-0.8,0.8-1.7,0.8-2.6c-0.1-1.7-1.6-3.1-3.3-3c0,0,0,0,0,0c-1,0-2.1,0.4-2.8,1.1
			C4.1,4.4,3.7,5.2,3.7,6C3.6,6.9,4,7.7,4.8,8.1c0,0,0.1,0,0.1,0C5,8.1,5,8,5.1,7.9l0,0l0-0.1c0-0.1,0.1-0.2,0.1-0.3
			c0-0.1,0-0.2-0.1-0.3c-0.2-0.3-0.4-0.7-0.3-1c0-0.7,0.2-1.3,0.7-1.8c0.5-0.5,1.2-0.8,1.9-0.8c1.1-0.1,2.1,0.7,2.2,1.8
			c0,0.1,0,0.2,0,0.3c0,1.6-0.7,2.8-1.7,2.8c-0.3,0-0.5-0.1-0.7-0.3C7,8,7,7.7,7,7.5C7.1,7.2,7.1,7,7.2,6.7v0C7.4,6.4,7.4,6,7.5,5.6
			c0-0.4-0.2-0.7-0.6-0.8C6.8,4.8,6.8,4.8,6.8,4.8z"/>
	</g>
</g>
</svg>
