<svg xmlns="http://www.w3.org/2000/svg" width="109.04" height="96.992" viewBox="0 0 109.04 96.992">
    <path id="Path_36594" data-name="Path 36594" d="M20.686,1179.084a1.042,1.042,0,0,1,.562.245,1.252,1.252,0,0,0,.581.269,1.31,1.31,0,0,1,.533.208.127.127,0,0,0,.173.036c.046-.035.173-.011.273.057a3.526,3.526,0,0,0,.89.262,2.58,2.58,0,0,1,.8.257c.053.069.114.07.143.012s.132-.065.246.005a3.543,3.543,0,0,0,.929.269,16.9,16.9,0,0,1,2.667.581,1.6,1.6,0,0,0,.543.078c.268,0,.857.046,1.31.087,1.459.138,1.745.149,1.859.061a.689.689,0,0,1,.412-.013.712.712,0,0,0,.459-.049c.076-.059.167-.067.2-.021s.193.047.343-.009a1.291,1.291,0,0,1,.49-.085,2.768,2.768,0,0,0,.691-.155.916.916,0,0,1,.6-.063.354.354,0,0,0,.343-.058,1.294,1.294,0,0,1,.576-.162,6.251,6.251,0,0,0,1.491-.357,9.036,9.036,0,0,1,.973-.308,35.858,35.858,0,0,0,3.608-1.3,4.454,4.454,0,0,1,.572-.231,21.656,21.656,0,0,0,2.774-1.252,3.307,3.307,0,0,1,.917-.412,11.727,11.727,0,0,0,1.374-.6,11.908,11.908,0,0,1,1.092-.547,12.763,12.763,0,0,0,1.375-.76c.425-.266.955-.6,1.173-.742.866-.542,2.343-1.563,3.21-2.214,1.347-1.017,4.61-3.683,4.653-3.8a.137.137,0,0,1,.178-.052c.085.032.247-.055.361-.191s.582-.566,1.031-.958.87-.775.928-.855.479-.462.928-.854c1.425-1.247,1.737-1.582,1.632-1.719-.058-.076-.06-.173-.014-.208a.129.129,0,0,1,.181.031c.128.168.565.185.5.019a15.606,15.606,0,0,1,3.31-2.651c.36-.193,1.205-.731,1.876-1.2a14.249,14.249,0,0,1,1.318-.851.113.113,0,0,0,.093-.131c0-.069.262-.273.6-.469s.817-.48,1.077-.63a3.886,3.886,0,0,1,.473-.267,5.278,5.278,0,0,0,1.167-.686,3.251,3.251,0,0,1,.8-.428,1.06,1.06,0,0,0,.728-.533.917.917,0,0,1,.492-.351,28.467,28.467,0,0,0,2.669-1.5l.983-.594c.23-.141.753-.468,1.173-.74a8.692,8.692,0,0,1,1.1-.627,10.767,10.767,0,0,0,1.338-.793,13.671,13.671,0,0,1,1.225-.767c.132-.065.778-.5,1.45-.977a10.165,10.165,0,0,1,1.3-.847c.142.012.171-.045.04-.09-.169-.064.115-.45.4-.549a3.437,3.437,0,0,0,.555-.316,1.543,1.543,0,0,1,.53-.271.258.258,0,0,0,.226-.21,4.141,4.141,0,0,1,1.014-.885,4.205,4.205,0,0,0,.936-.764,4.776,4.776,0,0,1,.808-.824,4.888,4.888,0,0,0,.848-.866,18.889,18.889,0,0,1,2.031-1.686c1.127-.863,2.361-1.855,2.757-2.207.482-.428.752-.612.85-.578a.14.14,0,0,0,.193-.111,2.87,2.87,0,0,1,.759-1.028c.055.007.231-.188.393-.433a2.74,2.74,0,0,1,.585-.641,3.036,3.036,0,0,0,.672-.731,5.368,5.368,0,0,1,.571-.74,18.039,18.039,0,0,0,1.429-1.89,9.518,9.518,0,0,1,.685-.888.49.49,0,0,0,.153-.273,7.928,7.928,0,0,1,1.281-1.91.1.1,0,0,0,.056-.164c-.047-.061-.009-.137.1-.171s.173-.169.16-.328a.473.473,0,0,1,.114-.388,3.387,3.387,0,0,0,.454-.891c.166-.429.364-.882.435-1.009a11.261,11.261,0,0,0,.611-1.555,5.133,5.133,0,0,1,.777-1.669c.024.031.088-.152.144-.412a1.588,1.588,0,0,1,.194-.535,2.713,2.713,0,0,0,.194-.789,9.588,9.588,0,0,1,.225-1.128,6.823,6.823,0,0,0,.166-.682,1.114,1.114,0,0,1,.093-.336,18.3,18.3,0,0,0,.271-2.489,5.088,5.088,0,0,1,.057-.842,9.028,9.028,0,0,0,.069-1.188.928.928,0,0,1,.116-.559.213.213,0,0,0-.009-.3.218.218,0,0,1,.007-.307c.084-.065.093-.132.021-.162a5.469,5.469,0,0,1-.081-2.317,2.384,2.384,0,0,0-.034-.88.143.143,0,0,1,.006-.2c.054-.041.045-.13-.013-.206a2.068,2.068,0,0,1-.177-.626,1.844,1.844,0,0,0-.171-.618.262.262,0,0,1-.011-.268,1.064,1.064,0,0,0-.063-.6,7.557,7.557,0,0,1-.414-1.883c.007-.149-.03-.291-.1-.321s-.1-.2-.087-.381a.879.879,0,0,0-.077-.5.291.291,0,0,1-.012-.316c.053-.088.044-.179-.027-.208a.3.3,0,0,1-.129-.216,5.554,5.554,0,0,0-.408-1.307,1.506,1.506,0,0,1-.127-.483,2.148,2.148,0,0,0-.362-.773,2.14,2.14,0,0,1-.362-.725c.014-.109-.039-.177-.158-.207s-.2-.17-.251-.423a1.473,1.473,0,0,0-.2-.561,1.134,1.134,0,0,1-.173-.448,2.285,2.285,0,0,0-.3-.676,1.772,1.772,0,0,1-.257-.589c0-.191-.225-.516-2.158-3.121a22.076,22.076,0,0,1-1.343-1.93,1.259,1.259,0,0,0-.416-.48,11.608,11.608,0,0,1-.87-.869,3.634,3.634,0,0,0-.688-.632,3.861,3.861,0,0,1-.731-.625,3.768,3.768,0,0,0-.7-.6.3.3,0,0,1-.174-.291c.02-.148,0-.171-.082-.107a.176.176,0,0,1-.23-.065,5.911,5.911,0,0,0-1.027-.617,5.744,5.744,0,0,1-1.276-.861,2.058,2.058,0,0,0-.715-.478,2.044,2.044,0,0,1-.633-.339,2.249,2.249,0,0,0-.649-.373c-.182-.065-.468-.185-.635-.263a6.223,6.223,0,0,0-.787-.3c-1.293-.411-2.086-.626-2.454-.7a4.292,4.292,0,0,1-.729-.227.755.755,0,0,0-.417-.1c-.046.035-.142-.011-.212-.1a4.988,4.988,0,0,0-1.542-.342,8.393,8.393,0,0,1-1.478-.259c-.041-.054-.132-.045-.2.007a2.97,2.97,0,0,1-.993.012,3.686,3.686,0,0,0-.962-.025,8.872,8.872,0,0,1-1.995-.129.935.935,0,0,0-.473.013c-.027.044-.2.055-.372.019a.8.8,0,0,0-.42.019,1.988,1.988,0,0,1-.731.039,2.849,2.849,0,0,0-.706.008c-.038.029-.1-.034-.129-.153s-.075-.147-.108-.063c-.071.176-.647.071-.716-.129s-.4-.259-.507-.095c-.036.063-.2.008-.365-.131-.228-.2-.3-.219-.335-.059s-.123.2-.336.209a.9.9,0,0,0-.461.123c-.092.07-.2.082-.244.029s-.139-.039-.235.024c-.175.134-.82.191-.666.061.04-.042-.138-.038-.418.007a1.013,1.013,0,0,1-.562.007,1.118,1.118,0,0,0-.557.015,4.643,4.643,0,0,1-.816.069,9.608,9.608,0,0,0-2.391.221c-.354.09-.748.175-.881.191a.426.426,0,0,0-.3.192c-.032.084-.059.082-.068-.01a4.23,4.23,0,0,0-1.759.259,6,6,0,0,1-1.5.3,6.106,6.106,0,0,0-1.185.314c-.53.176-1.13.37-1.343.424a22.431,22.431,0,0,0-4.208,1.7,4.423,4.423,0,0,1-.568.252,2.74,2.74,0,0,0-.491.256c-.34.235-1.08.452-1.168.336s-.612.336-.6.495a.4.4,0,0,1-.168.286c-.1.076-.218.094-.259.041s-.2.008-.351.124a.592.592,0,0,1-.411.158.143.143,0,0,0-.181.079,2.849,2.849,0,0,1-1.126.486,40.6,40.6,0,0,0-4.081,3.159c-1.511,1.434-7.469,6.136-9.124,7.209-.525.34-1.236.8-1.571,1.009s-1.2.811-1.935,1.323-1.794,1.239-2.38,1.626a41.437,41.437,0,0,0-4.086,3.138c-.834.71-1.834,1.534-2.21,1.847s-.911.782-1.172,1.041-.667.643-.917.87-.518.507-.623.623-.559.547-1.016.945a9.868,9.868,0,0,0-.854.811,5.548,5.548,0,0,1-.508.52c-.253.254-.566.554-.679.676-.553.556-2.6,2.9-2.985,3.408a6.6,6.6,0,0,1-.558.644,12.962,12.962,0,0,0-1.458,1.647,3.506,3.506,0,0,1-.5.734c-.27.34-.845,1.1-1.277,1.678a13.162,13.162,0,0,1-.931,1.183,2.784,2.784,0,0,0-.433.634,5.309,5.309,0,0,1-.607.864,2.739,2.739,0,0,0-.414.533,14.949,14.949,0,0,1-1.275,1.411c-.65.667-1.342,1.388-1.543,1.614-.417.464-.843,1.25-.75,1.372.035.046-.013.141-.112.217a.938.938,0,0,0-.215.54,2.115,2.115,0,0,1-.6,1.063,8.959,8.959,0,0,0-.687.9c-.072.127-.333.544-.589.921a8.643,8.643,0,0,0-.555.98,1.428,1.428,0,0,1-.318.485,3.24,3.24,0,0,0-.427.689c-.225.51-1.331,2.855-1.692,3.614a2.1,2.1,0,0,0-.221.676.528.528,0,0,1-.133.331.6.6,0,0,0-.129.352,5.253,5.253,0,0,1-.241.933,13.832,13.832,0,0,0-.686,2.482,15.152,15.152,0,0,1-.759,2.924,2.889,2.889,0,0,0-.233.926,1.119,1.119,0,0,1-.12.539,9.791,9.791,0,0,0-.538,2.138c-.032.195-.107.65-.169,1.011a2.117,2.117,0,0,0-.053.753.134.134,0,0,1-.052.184,3.544,3.544,0,0,0-.209,1.164c-.044.589-.114,1.223-.142,1.425a.782.782,0,0,0,.018.481.357.357,0,0,1,.038.285c-.1.255.016.954.615,3.757.056.294.17.569.244.586a.153.153,0,0,1,.084.189.194.194,0,0,0,.108.22.18.18,0,0,1,.062.254c-.054.1,0,.246.146.4a.492.492,0,0,1,.185.463.321.321,0,0,0,.1.322.573.573,0,0,1,.188.34,21.334,21.334,0,0,0,1.733,2.912,13.455,13.455,0,0,0,1.438,1.486c.4.346.581.569.559.683s.1.2.354.273a.69.69,0,0,1,.493.36.842.842,0,0,0,.374.379,4.866,4.866,0,0,1,.886.954c.349.456.94,1.164,1.323,1.571a4.149,4.149,0,0,1,.78,1.035.581.581,0,0,0,.451.415.862.862,0,0,1,.423.269.7.7,0,0,0,.26.26,2.36,2.36,0,0,1,.32.214c.074.064.245.21.383.311a1.473,1.473,0,0,1,.31.3.194.194,0,0,0,.164.1,3.267,3.267,0,0,1,1.093.577,1.561,1.561,0,0,0,.409.267,5.016,5.016,0,0,1,.842.564,2.469,2.469,0,0,0,.722.438,5.852,5.852,0,0,1,.7.223,7.475,7.475,0,0,0,1.306.318,3.469,3.469,0,0,1,1.688.629,1.126,1.126,0,0,0,.472.159M3.051,1161.459a.134.134,0,0,1,.156.11c.016.194-.063.217-.191.051-.058-.077-.048-.157.034-.161m2.063,4.34a.516.516,0,0,1,.181.235c.023.093-.041.057-.141-.073s-.116-.2-.04-.162m5.528,6.074a.216.216,0,0,1-.169-.016c-.071-.03-.091-.087-.03-.134a.127.127,0,0,1,.175.023c.041.053.047.108.024.126m-7.224-9.981a.765.765,0,0,0,.167.44c.1.13.5.7.891,1.275a55.184,55.184,0,0,0,3.309,4.642c.329.414.749.963.927,1.212a2.57,2.57,0,0,1,.312.487c-.061.046-.483-.331-.7-.621-.135-.162-.289-.3-.344-.292s-.313-.22-.548-.511a3.1,3.1,0,0,0-.675-.63,2.506,2.506,0,0,1-.578-.6c-.2-.273-.438-.51-.546-.525s-.2-.1-.223-.276c-.067-.419.136-.406.393.024.148.225.292.381.337.347s.121.064.169.221a.608.608,0,0,0,.274.359c.1.041.179.044.169.016-.031-.073-.475-.748-.824-1.267a2.307,2.307,0,0,0-1.165-.86c-.124.01-.488-.749-1.215-2.489-.253-.615-.342-.983-.258-1.047.1-.076.136-.043.132.093m18.824,16.967a.125.125,0,0,1-.167-.03.116.116,0,0,1,.022-.161.119.119,0,0,1,.169.016.126.126,0,0,1-.023.175m7.582,1.7c-.007.053-.071.016-.139-.088-.088-.115-.082-.155.006-.1s.148.129.133.19m-.27-3.116c-.008.053-.071.018-.139-.087-.088-.115-.082-.155.006-.1s.148.13.132.188m7.023.655c-.013.046-.128-.01-.272-.118s-.262-.248-.248-.293.128.01.272.119.247.245.248.293m8.83-1.452c-.007.055-.071.018-.152-.088s-.069-.153.02-.1a.236.236,0,0,1,.133.188m4.688-2.414c-.021.114-.223.088-.316-.034-.047-.062,0-.089.125-.074s.191.06.191.107m5.01-4.883c-.007.055-.1.041-.215-.028-.144-.094-.149-.116.013-.093.122.016.21.068.2.121m.564.391a.219.219,0,0,1-.169-.016c-.079-.024-.091-.087-.039-.128a.127.127,0,0,1,.176.023c.041.053.055.1.032.121m.514-2.58c-.039.091-.7-.455-.684-.564,0-.026.17.064.363.206s.337.3.321.358m1.859,1.308c-.009.115-.226.052-.341-.114-.093-.122-.071-.14.116-.053.131.045.23.126.225.166m1.138-1.717c-.18.017-.185,0-.04-.115.092-.07.19-.083.231-.031.088.115.08.121-.191.146m5.031-5.406c-.013.046-.111.013-.237-.073s-.214-.185-.207-.239.111-.013.236.072.207.193.207.24m.972.875c-.135-.018-.167-.235-.046-.328.054-.041.144,0,.2.076.111.145.032.278-.157.253m.317-.786c-.53-.235-.536-.242-.848-.982-.269-.652-.275-.707-.029-.4a2.514,2.514,0,0,0,.522.507,5.7,5.7,0,0,1,.664.554c.521.507.4.622-.31.322m-2.716-3.6c-.339-.443-.062-.412.351.033a1.144,1.144,0,0,1,.284.434c-.019.149-.339-.079-.635-.467m8.052-2.247c.077.147.077.195,0,.109a2.69,2.69,0,0,0-.333-.277c-.144-.094-.149-.116.007-.1a.473.473,0,0,1,.327.269m1.841,1.4c.09.2.09.2-.107.081-.311-.185-.4-.333-.178-.311a.47.47,0,0,1,.284.23M85.62,1149.4a.119.119,0,0,1-.17-.015.544.544,0,0,0-.3-.122c-.323-.043-1.035-.39-1.022-.5.013-.046-.187-.181-.425-.3a3.153,3.153,0,0,1-.81-.6c-.21-.213-.813-.778-1.34-1.246s-1.226-1.114-1.573-1.442-.775-.7-.961-.846c-.385-.3-2.959-2.858-3.558-3.547a15.538,15.538,0,0,0-1.082-1.129s-.221-.242-.483-.537-.529-.6-.6-.675-.5-.689-.966-1.374-1.06-1.543-1.331-1.928c-.634-.892-.832-1.356-.726-1.69.073-.237-.025-.428-.663-1.341a13.355,13.355,0,0,1-.8-1.215c-.03-.087.082-.256.234-.373l.29-.222.51.636c.645.811.762,1.012.7,1.182s.2.526.79,1.111a6.735,6.735,0,0,1,.747.866c.708,1,1.673,2.235,2.7,3.439.6.7,1.407,1.666,1.8,2.129s.859,1,1.041,1.171.733.817,1.247,1.426,1.042,1.221,1.173,1.36.546.587.9.982a40.918,40.918,0,0,0,3.474,3.515c.607.526,1.137,1.014,1.2,1.09s.061.158.008.2M67.932,1131a3.261,3.261,0,0,1,.608.67c.287.47.226.421-.446-.347-.486-.558-.51-.588-.162-.323m20.921,13.046c-.263-.186-1.128-1.143-1.013-1.135a3.354,3.354,0,0,1,.637.564c.506.518.683.782.376.571m.949.83c.03.087-.033.052-.133-.078s-.117-.2-.048-.157a.4.4,0,0,1,.181.236m1.772-1.693a.126.126,0,0,1-.167-.028.069.069,0,0,1,.056-.117.3.3,0,0,1,.182.031c.017.023-.018.073-.071.114m2.085-1.064c-.172-.1-.26-.2-.236-.278s.082-.1.117-.052c.037.031.164.151.266.254.27.242.218.268-.147.076m12.189-13.007a.455.455,0,0,1-.605.33,8.83,8.83,0,0,1-2.782-2.328,22.969,22.969,0,0,1-3.171-4.3l-.108-.424.294.257a7.19,7.19,0,0,1,.673.755,6.263,6.263,0,0,0,.756.8,8.234,8.234,0,0,1,.724.726,2.707,2.707,0,0,0,.479.468,3.822,3.822,0,0,1,.506.519,9.272,9.272,0,0,0,1.23,1.245c.088.067.325.283.536.5s.647.594.964.835c.47.377.565.485.5.627m-4.485-5.012c.005-.04.091-.022.194.033s.177.153.178.2-.1.028-.2-.027-.179-.154-.171-.208m1.722,1.6c-.016.121-.226.052-.348-.107-.086-.128-.065-.131.124-.058.129.058.23.125.224.166m.2.219c.041.054.047.109.024.126a.218.218,0,0,1-.169-.015c-.072-.03-.091-.088-.03-.134a.127.127,0,0,1,.175.023m1.593,1.5a2.682,2.682,0,0,1-.857-.8c0-.034.21.117.467.342s.428.433.39.463m-4.837-34.731c-.4-.565-.439-.653-.2-.52a6.619,6.619,0,0,1,.773.617c.275.248.616.568.762.7a7.381,7.381,0,0,1,.7.805c.334.421.419.61.344.764-.1.246,0,.445.154.28.1-.124.17-.045.925,1.068a2.571,2.571,0,0,0,.679.714c.185.085.25.17.211.26a1.677,1.677,0,0,0,.41.726c.252.313.543.695.654.839a1.381,1.381,0,0,1,.223.639,1.29,1.29,0,0,0,.288.661.681.681,0,0,1,.2.588c-.062.313-.068.305-.6-.305a2.868,2.868,0,0,1-.535-.811c0-.109-.034-.155-.088-.114s-.445-.408-.96-1.114c-.481-.659-1.06-1.448-1.3-1.774-.354-.478-1.313-1.953-1.992-3.078-.083-.14-.369-.561-.647-.942m-3.508-2.375c-.31-.248-.363-.521-.1-.506a.444.444,0,0,1,.3.129,1.561,1.561,0,0,0,.441.292c.789.385.971.512,1.065.73.051.13.157.206.265.172.228-.066.43.215.247.354a.217.217,0,0,0-.024.284c.071.093.385.552.708,1,.524.748,1.193,1.781,1.731,2.673a67.637,67.637,0,0,0,4.475,6.023c.376.413.839.94,1.035,1.164s.382.421.413.445a1.707,1.707,0,0,1,.4.676,1.35,1.35,0,0,0,.132.345c.067.119.205.459.318.748l.2.526-.547-.415a22.627,22.627,0,0,1-2.7-2.475c-.327-.365-.736-.788-.915-.943a11.926,11.926,0,0,1-1.022-1.162,3.579,3.579,0,0,0-.9-.928c-.173-.036-.189-.074-.075-.161s.027-.25-.386-.79c-.647-.846-1.97-2.78-2.135-3.137a8.334,8.334,0,0,0-.557-.854,9.6,9.6,0,0,1-.654-1.046c-.112-.24-.506-.929-.865-1.525a6.286,6.286,0,0,1-.652-1.277.479.479,0,0,0-.192-.347m-5.977-3.171a9.3,9.3,0,0,1,2.136.661.256.256,0,0,0,.242.032,8.063,8.063,0,0,1,2.431,1.221c.2.184.271.323.215.44a1.014,1.014,0,0,0,.166.6c.959,1.7,1.143,2.014,1.2,2.172a8.267,8.267,0,0,0,.448.793c.209.335.468.754.553.929a82.8,82.8,0,0,0,7.1,9.9c.632.7,1.739,1.847,2.274,2.343,1.048.974,1.4,1.453,1.372,1.825a1.133,1.133,0,0,0,.08.484c.162.323.155.328-.164.1a34.262,34.262,0,0,1-2.621-2.259c-.093-.121-.194-.189-.232-.161s-.29-.237-.556-.6a3.965,3.965,0,0,0-.669-.732,9.945,9.945,0,0,1-1.052-1.091,12.353,12.353,0,0,0-.952-1.023c-.176-.072-3.561-4.45-3.953-5.105-.21-.37-.744-1.194-1.174-1.82s-.942-1.453-1.152-1.837-.538-.94-.744-1.241a9.12,9.12,0,0,1-.491-.833,6.1,6.1,0,0,0-.408-.738c-.158-.253-.4-.7-.539-.989a4.159,4.159,0,0,0-.311-.6.341.341,0,0,1-.08-.12c-.116-.406-.68-1.158-.889-1.178-.288-.045-.262.32.051.792.154.234.355.575.454.752s.356.623.595.983c.589.927.667,1.061.646,1.16a29.109,29.109,0,0,0,1.9,3.375c.281.415.873,1.314,1.32,2.01.75,1.154,5.123,6.807,6.533,8.446.321.371.976,1.15,1.461,1.721a7.905,7.905,0,0,0,1.017,1.093,1.749,1.749,0,0,1,.395.327c.136.162.428.481.649.722s.642.681.925.972a1.811,1.811,0,0,1,.629,1.029,1.74,1.74,0,0,1,.063.651c-.071.224-.195.282-.256.123a1.866,1.866,0,0,0-.5-.477c-.243-.175-.445-.359-.432-.406s-.089-.1-.194-.129-.207-.1-.2-.15-.1-.164-.241-.251a4.975,4.975,0,0,1-.7-.612c-.246-.259-.891-.913-1.436-1.451s-1.081-1.082-1.2-1.2-.211-.213-.226-.2-.316-.35-.689-.789a5.3,5.3,0,0,0-.821-.868c-.169-.064-5.5-7.049-5.518-7.231a13.741,13.741,0,0,0-.821-1.278,17.433,17.433,0,0,1-1.093-1.713,15.327,15.327,0,0,0-.833-1.4,48.715,48.715,0,0,1-2.584-4.437,21.261,21.261,0,0,0-1.221-2.242c-.291-.429-.281-.509.079-.482m-2.783-.782a1.826,1.826,0,0,0,.564.027.761.761,0,0,1,.486.1.2.2,0,0,0,.208.084c.214-.068.622.465,1.112,1.467a4.863,4.863,0,0,0,.583,1.016.248.248,0,0,1,.121.221.643.643,0,0,0,.052.226c.018.023.18.346.358.7.415.842,1.325,2.442,1.674,2.946.258.369.906,1.421,1.239,2,.489.859.808,1.388,1.154,1.92.564.848,1.833,2.729,2.082,3.069a.727.727,0,0,1,.167.439c-.032.1-.007.116.066.07.084-.064.34.223.941,1.056,1.581,2.21,2.127,2.892,4.849,6.135.654.792,1.345,1.617,1.541,1.84a4.038,4.038,0,0,0,.548.56,8.466,8.466,0,0,1,.862.888,7.075,7.075,0,0,0,.9.893,7.141,7.141,0,0,1,.849.811,7.308,7.308,0,0,0,.883.823.409.409,0,0,1,.252.424,5.31,5.31,0,0,0,.087.777c.109.569.055.561-.657-.1a1.963,1.963,0,0,0-.511-.368,2.35,2.35,0,0,1-.575-.467,10.2,10.2,0,0,0-.826-.794,4.068,4.068,0,0,1-.514-.514c-.057-.075-.544-.585-1.089-1.123a24.843,24.843,0,0,1-1.971-2.309,8.063,8.063,0,0,0-1.056-1.27c-.038.03-.111-.082-.157-.253s-.139-.292-.194-.286a2.782,2.782,0,0,1-.663-.678,7.894,7.894,0,0,0-1.7-1.766.206.206,0,0,1-.162-.165,2.12,2.12,0,0,0-.552-.532,10.358,10.358,0,0,1-1.85-2.183c-.735-1.008-1.5-2.076-1.695-2.389s-.587-.926-.878-1.369-.653-1.011-.81-1.265c-.664-1.073-1.7-2.744-1.966-3.169-.368-.576-1.211-2.058-1.635-2.833-.167-.328-.448-.792-.606-1.046s-.524-.89-.794-1.434c-1.1-2.2-1.155-2.363-.714-2.182m-73.233,89c.1.239.048.2-.394-.279-.358-.39-.351-.4-.026-.161a1.456,1.456,0,0,1,.42.44m2.693,1.514c.087.176.071.188-.142.145-.172-.05-.22-.1-.185-.209.038-.077.1-.137.149-.138a.453.453,0,0,1,.178.2m-14.619-19.1c-.122.093-.087.2.164.515a1.688,1.688,0,0,0,.5.45c.106.028.147.082.094.123a2.711,2.711,0,0,0,.521.918c.327.475.823,1.171,1.08,1.554,1,1.46,7.193,9.608,7.407,9.746a.608.608,0,0,1,.25.375.369.369,0,0,0,.176.277,6.513,6.513,0,0,1,.81.854c.365.446.963,1.147,1.337,1.574s.883,1.027,1.148,1.343a2.132,2.132,0,0,1,.432.612,2.162,2.162,0,0,1-.645-.449c-.319-.275-.818-.69-1.108-.928a18.969,18.969,0,0,1-2.045-2.168c-.037-.08-.1-.116-.146-.081s-.262-.185-.5-.485-1.1-1.344-1.927-2.33-1.7-2.033-1.934-2.338-.442-.531-.48-.5c-.107.082-.587-.467-.82-.929a6.593,6.593,0,0,0-1.228-1.828c-.043.119-.365-.192-.827-.78a27.759,27.759,0,0,1-1.581-2.462c0-.069-.1-.116-.212-.1-.139.009-.181-.031-.146-.143a1.145,1.145,0,0,0-.18-.6,2.209,2.209,0,0,1-.239-.722.808.808,0,0,0-.108-.426,1.518,1.518,0,0,1-.064-.652c.016-.374.082-.51.227-.524.18-.017.184,0,.047.108m9.864,11.853c-.77-.9-1.544-1.765-1.707-1.931-1.106-1.1-2.242-2.536-5.741-7.3-1.814-2.465-2.307-3.078-2.452-3.063s-.135-.019-.019-.12.11-.2-.007-.356a.522.522,0,0,1-.128-.373.849.849,0,0,0-.03-.435.4.4,0,0,1,.106-.445c.106-.082.149-.2.1-.268a.89.89,0,0,1-.08-.422c0-.287,0-.287.207-.013.115.167.417.576.679.918.756,1,1.756,2.438,2.125,3.048l.342.572.074-.5.079-.5-.862-1.128a7.921,7.921,0,0,1-.879-1.26c-.01-.077-.068-.105-.122-.064-.076.058-.116.006-.148-.177a4.682,4.682,0,0,0-.573-1.035c-.763-1.107-.823-1.314-.6-2.009.12-.332.227-.62.242-.631a3.389,3.389,0,0,1,.813.369c.012.015-.062.107-.164.211-.16.169-.136.249.229.742.234.306.45.525.488.5s.1.047.121.174a.515.515,0,0,0,.176.324c.07.044.095.109.049.143a7.641,7.641,0,0,0,.954,1.469c1,1.358,1.038,1.4,1.145,1.165.076-.154.017-.373-.14-.641-.322-.515-.435-.585-.587-.372-.117.162-.123.154-.072-.078a3.874,3.874,0,0,0-1-2.036c-.4-.513-.523-.746-.479-.925a1.648,1.648,0,0,0-.354-.89c-.825-1.3-.954-2.084-.5-3.056l.116-.258.3.751a9.789,9.789,0,0,0,.587,1.194l.288.456.144-.365c.089-.2.116-.4.061-.457a4.509,4.509,0,0,1-.368-.624c-.153-.294-.3-.559-.319-.59a.75.75,0,0,1-.042-.2,2.732,2.732,0,0,0-.215-.535,2.01,2.01,0,0,1,.2-1.684.269.269,0,0,0,.043-.275.136.136,0,0,1,.031-.181c.068-.052.154.027.236.23a8.028,8.028,0,0,0,.473.809c.176.277.459.725.621,1,.166.3.32.467.374.426.175-.134.185-.105-.833-1.815-.188-.326-.313-.63-.267-.665s-.011-.172-.122-.317a.564.564,0,0,1-.1-.526.307.307,0,0,0-.061-.364c-.108-.062-.1-.177.039-.344.109-.143.159-.267.108-.286-.1-.042.193-.995.307-.973.048,0,.132.141.172.3a8.439,8.439,0,0,0,.724,1.246c.552.847.631.919.636.674a2.537,2.537,0,0,0-.384-.914,4.8,4.8,0,0,1-.459-.978,8,8,0,0,0-.261-.863,1.287,1.287,0,0,1-.107-.739c.049-.11.159-.376.249-.59l.152-.369.478.878c.765,1.457,1.106,1.968,1.228,1.875s.11-.157-.4-1.128c-.218-.412-.431-.817-.48-.913a4.079,4.079,0,0,1-.31-1.115,1.818,1.818,0,0,0-.077-.4A2.727,2.727,0,0,1,7,1139.246a15.071,15.071,0,0,1,1.362,2.254c.017.18.188-.023.2-.233a4.616,4.616,0,0,0-.676-1.4.909.909,0,0,1-.112-.288,2.767,2.767,0,0,0-.208-.6c-.185-.462-.088-.826.5-1.795.21-.341.21-.341.332.072a6,6,0,0,0,.5.944c.226.359.5.826.6,1.03.147.286.2.342.278.221.066-.087-.046-.424-.265-.835-.2-.382-.44-.907-.545-1.154a6.547,6.547,0,0,0-.323-.706c-.111-.193-.069-.36.229-.791l.367-.546.2.259a2.12,2.12,0,0,1,.3.546,6.886,6.886,0,0,0,.546,1.03c.372.6.486.715.6.627.084-.064.03-.276-.18-.646a7.125,7.125,0,0,1-.969-2.545,4.264,4.264,0,0,1,.529-.634c.395-.385.453-.419.633-.278a1.61,1.61,0,0,1,.369.672,2.452,2.452,0,0,0,.565.9c.211.213.7.757,1.091,1.206a4.628,4.628,0,0,0,.815.813,3.412,3.412,0,0,1,.677.727c.637.817.814.922.806.47.006-.245-.177-.516-1.106-1.605-.939-1.117-1.1-1.365-1.127-1.662a1.2,1.2,0,0,0-.156-.52,1.729,1.729,0,0,1-.16-.7,1.951,1.951,0,0,0-.136-.668,2.076,2.076,0,0,1-.213-.563c-.153-.595-.483-1.152-.694-1.208-.192-.046-.059-.377.162-.4a.136.136,0,0,0,.1-.159c-.049-.553.478.057.671.767a2.907,2.907,0,0,0,.257.636,1.909,1.909,0,0,1,.216.439c.034.108.219.508.415.89a17.579,17.579,0,0,0,.875,1.6,15.134,15.134,0,0,1,.947,1.727c.114.276.23.428.315.411.193-.015.189-.132-.045-.532-.1-.2-.258-.48-.327-.633s-.27-.542-.438-.872-.426-.81-.554-1.087-.362-.725-.523-1a2.464,2.464,0,0,1-.337-.8,2.611,2.611,0,0,0-.313-.788,3.273,3.273,0,0,1-.351-1.011c-.036-.3-.07-.55-.076-.558a3.19,3.19,0,0,1,.363-.409c.359-.383.372-.382.473-.109a6.948,6.948,0,0,0,.778,1.4,2.917,2.917,0,0,1,.392.813,3.686,3.686,0,0,0,.417.876,7.827,7.827,0,0,1,.379.7,6.129,6.129,0,0,0,.491.832,11.553,11.553,0,0,1,.635,1.035c.117.249.162.276.249.137a.452.452,0,0,0-.066-.433c-.1-.15-.268-.4-.376-.571a24.9,24.9,0,0,1-1.369-2.577c-.195-.429-.5-1.065-.687-1.4a6.511,6.511,0,0,1-.44-1.065c-.1-.37-.076-.462.221-.689a1.911,1.911,0,0,0,.506-.617c.154-.335.185-.345.306-.185a.609.609,0,0,1,.12.332,34.073,34.073,0,0,0,2.117,4.3c.664,1.073.868,1.341.888,1.193a7.054,7.054,0,0,0-1.065-2.23,8.008,8.008,0,0,1-.817-1.573,3.218,3.218,0,0,0-.334-.832,2.536,2.536,0,0,1-.295-.811c.028-.058-.035-.2-.128-.325a.381.381,0,0,1-.056-.4.209.209,0,0,0-.053-.274c-.114-.07-.047-.2.279-.552.526-.56.546-.55,1.08.575a9.085,9.085,0,0,0,.635,1.146.955.955,0,0,1,.219.46,2.464,2.464,0,0,0,.316.712,4.159,4.159,0,0,1,.348.677,3.958,3.958,0,0,0,.427.747,9.248,9.248,0,0,1,.569.966c.108.22.17.269.184.161a3.537,3.537,0,0,0-.7-1.647,6.139,6.139,0,0,1-.576-1.069,10.688,10.688,0,0,0-.468-1.006c-.175-.324-.429-.844-.566-1.15s-.305-.636-.373-.74a.74.74,0,0,1-.073-.38.513.513,0,0,0-.074-.318c-.122-.16.281-.927.555-1.042a.23.23,0,0,0,.167-.272c-.028-.1.018-.182.086-.187.085-.016.167.091.23.284a1.145,1.145,0,0,0,.163.371,3.065,3.065,0,0,1,.272.577,7.407,7.407,0,0,0,.415.89c.18.3,1.115,2.121,1.451,2.829.058.124.126.133.217.015a.368.368,0,0,0-.059-.424,5.875,5.875,0,0,1-.562-1.034,6.986,6.986,0,0,0-.4-.759,16.631,16.631,0,0,1-1.227-2.961,1.245,1.245,0,0,1,0-.432,5.417,5.417,0,0,1,.874-1.211,15.975,15.975,0,0,1,.986,2.095,4.7,4.7,0,0,0,.5.792c.371.5.445.566.439.353a1,1,0,0,0-.186-.511,8.27,8.27,0,0,1-1.2-2.7,2.15,2.15,0,0,0-.1-.247c-.123-.208.083-.523.552-.858.152-.116.278-.285.264-.382-.033-.422.222-.073.647.846a16.314,16.314,0,0,0,.743,1.461,5.184,5.184,0,0,1,.385.8c.089.306.1.309.207.082.059-.128.092-.275.063-.314a11.36,11.36,0,0,1-.636-1.289c-.647-1.461-.724-1.7-.688-2.07a.776.776,0,0,1,.2-.492.377.377,0,0,0,.151-.26.375.375,0,0,1,.151-.261,3,3,0,0,0,.437-.406c.311-.336.406-.275.587.42a9.434,9.434,0,0,0,.77,1.765c.077.147.233.462.348.675.286.579.462.384.209-.232-.115-.261-.337-.853-.509-1.313s-.332-.845-.361-.883-.073-.378-.124-.762c-.061-.521-.024-.743.137-.879.114-.087.161-.183.1-.206s-.022-.091.1-.136a.657.657,0,0,0,.307-.309.883.883,0,0,1,.347-.337l.256-.124.136.526a5.408,5.408,0,0,0,.5,1.14,2.711,2.711,0,0,1,.363.822.256.256,0,0,0,.132.237.251.251,0,0,1,.139.245.634.634,0,0,0,.166.391c.268.3.3-.111.051-.582a10.283,10.283,0,0,1-.857-2.3.949.949,0,0,0-.136-.463c-.192-.25.05-.786.549-1.192.354-.3.461-.329.526-.2a5.388,5.388,0,0,0,.25.485,3.272,3.272,0,0,1,.28.619,8.55,8.55,0,0,0,.4.9c.582,1.186.666,1.328.759,1.2s-.034-.469-.772-2.176a9.028,9.028,0,0,1-.418-1.116c-.035-.251-.222-.338-.486-.257-.1.028.119-.176.487-.469a6.4,6.4,0,0,0,.877-.78c.246-.31.27-.279.612.69a3.1,3.1,0,0,0,.442.893c.1.068.143.156.105.186-.069.052-.019.148.455.9.164.261.344.449.39.414s.053-.136,0-.227a1.67,1.67,0,0,1-.14-.231c-.013-.049-.115-.261-.21-.479a14.08,14.08,0,0,1-.843-2.555.6.6,0,0,1,.154-.541,3.371,3.371,0,0,0,.457-.445c.234-.264.268-.265.449-.029a1.384,1.384,0,0,1,.231.475,7.882,7.882,0,0,0,.619,1.52c.089.149.255.492.383.769a1.352,1.352,0,0,0,.316.509c.134.017.058-.383-.117-.612a.452.452,0,0,1-.114-.323,1.476,1.476,0,0,0-.223-.591,3.125,3.125,0,0,1-.31-.7c-.03-.134-.12-.488-.209-.794-.279-.933-.281-.92.25-1.267a3.376,3.376,0,0,1,.55-.324,4.356,4.356,0,0,1,.36.739,8.7,8.7,0,0,0,.491,1.051,9.289,9.289,0,0,1,.465.972c.226.516.288.613.394.532.13-.1.095-.24-.225-.879-.1-.212-.292-.683-.422-1.042s-.315-.87-.423-1.137c-.234-.557-.174-.749.4-1.336.532-.552.661-.493,1,.406a2.531,2.531,0,0,0,.366.747.1.1,0,0,1,.021.153c-.043.07.087.367.28.666s.429.687.522.857c.105.186.2.245.251.17a3.084,3.084,0,0,0-.422-1.089,6.813,6.813,0,0,1-.568-1.39,1.833,1.833,0,0,0-.207-.6c-.25-.327-.151-.656.36-1.156l.494-.476.2.342a4.677,4.677,0,0,1,.3.656,8.849,8.849,0,0,0,.6,1.216c.278.489.564,1.005.642,1.139s.165.2.208.131c.069-.1-.11-.556-.7-1.771-.839-1.713-.862-2-.258-2.531.713-.63.689-.647,1.357,1.015a4.063,4.063,0,0,0,.647,1.257c.075.051.112.131.087.176s.021.25.116.453c.128.277.2.334.3.252s.022-.366-.26-.973a19.713,19.713,0,0,1-1-2.637c-.1-.357-.1-.363.562-.781.91-.563,1.08-.657,1.274-.672.215-.019.313.315.131.455-.115.088-.1.1.112.131a.573.573,0,0,0,.393-.07c.206-.157.664.205,1.562,1.22.875.986,1.255,1.31,1.385,1.211a.34.34,0,0,0,.112-.28,15.081,15.081,0,0,0-1.785-2.632l-.746-.975.5-.385c.541-.414,1.006-.469.847-.093-.051.123.079.482.354.985a7.261,7.261,0,0,1,.475,1,7.861,7.861,0,0,0,.744,1.413,10.142,10.142,0,0,1,.793,1.495c.049.143.132.188.215.124.152-.116-.18-.962-.629-1.643a5.315,5.315,0,0,1-.456-.849c-.079-.229-.343-.812-.573-1.3a9.03,9.03,0,0,1-.546-1.346c-.109-.411-.077-.5.257-.8.653-.584.722-.588,1.068-.056a2.729,2.729,0,0,1,.316.6,4.424,4.424,0,0,0,.453.861,4.574,4.574,0,0,1,.671,1.287c.045.17.1.191.165.09.059-.081-.013-.364-.141-.628a4.178,4.178,0,0,1-.313-.74,6.335,6.335,0,0,0-.42-.96c-.553-1.086-.535-1.268.143-1.739.61-.419.558-.439.988.343a17.13,17.13,0,0,1,1.049,2.193c.036.142.107.172.206.1.168-.129.128-.29-.249-.957a11.482,11.482,0,0,1-.647-1.461l-.359-.959.663-.458c.362-.253.687-.476.725-.506s.127.071.191.2a20.371,20.371,0,0,1,.853,1.92c.241.662.576.974.541.518a5.315,5.315,0,0,0-.281-.982c-.147-.382-.324-.851-.394-1.038a.89.89,0,0,0-.23-.379c-.06-.015-.092-.231-.082-.469.016-.327.081-.448.264-.492a1.172,1.172,0,0,0,.423-.238c.186-.167.191-.16.517.534a9.643,9.643,0,0,0,1.142,2.062c.194.033.29-.331.133-.537a13.2,13.2,0,0,1-1.048-2.507,2.77,2.77,0,0,1,.6-.679l.59-.523.287.722c.719,1.793.98,2.244,1.208,2.07a.209.209,0,0,0,.018-.278,12.3,12.3,0,0,1-.938-2.615c-.006-.261.106-.445.5-.8.485-.456.493-.462.616-.2.071.139.206.411.311.6a2.168,2.168,0,0,1,.208.446,5.146,5.146,0,0,0,.488.858c.373.6.493.723.568.616.095-.144-.084-.6-.454-1.113a4.364,4.364,0,0,1-.433-1.215c-.2-.84-.189-.894.133-1.152.184-.154.468-.383.638-.523.331-.278.383-.257.478.261a3.425,3.425,0,0,0,.359.848,3.629,3.629,0,0,1,.356.875c.047.266.119.392.234.4s.161.069.128.167c-.082.209.127.434.279.318.084-.064.038-.282-.145-.6a7.877,7.877,0,0,1-.812-2.482.415.415,0,0,0-.063-.351c-.122-.159-.058-.234.594-.707s.711-.507.642-.251c-.112.438,1.34,3.5,1.576,3.324.069-.052-.015-.35-.2-.717a12.925,12.925,0,0,1-.913-2.6l-.114-.529.584-.373a3.538,3.538,0,0,1,.808-.412,1.822,1.822,0,0,0,.59-.319,1.287,1.287,0,0,1,.638-.27.492.492,0,0,0,.386-.174c.157-.252.591-.065.947.4a1.73,1.73,0,0,0,.615.519,8.075,8.075,0,0,1,2.5,2.947.955.955,0,0,0,.162.432c.5.668.554.771.478.83-.047.035.1.26.323.5s.367.48.314.521-.039.138.025.223c.268.35.268-.156,0-.642a5.859,5.859,0,0,1-.389-.825c-.082-.265-.043-.245.338.127.892.9,1,.974,1.136.87s.017-.326-.736-1.248a6.674,6.674,0,0,1-1.364-1.988.229.229,0,0,0-.122-.27.465.465,0,0,1-.2-.28,2.07,2.07,0,0,0-.323-.611c-.332-.482-.584-1.158-.41-1.136.054.007.127-.086.15-.2.037-.173.007-.212-.232-.257-.181-.031-.26-.1-.221-.194a.512.512,0,0,0-.122-.366c-.344-.45-.318-.59.149-.863.91-.515.91-.515,1.106-.133.1.19.207.4.24.456a.372.372,0,0,1,.035.2.835.835,0,0,0,.118.392,1.859,1.859,0,0,1,.164.419,2.1,2.1,0,0,0,.183.428c.093.17.285.531.42.8a3.933,3.933,0,0,0,.325.536,1.4,1.4,0,0,1,.173.4,6.38,6.38,0,0,0,.8,1.516c.275.454.428.228.18-.27-.1-.212-.5-.984-.878-1.733a8.239,8.239,0,0,1-.633-1.459c.026-.045-.048-.205-.164-.357a1.524,1.524,0,0,1-.254-.521c-.024-.126-.1-.465-.185-.763s-.08-.579.011-.649c.122-.093,2.048-.891,2.905-1.207.245-.091.208-.123.572.733.169.378.388.886.508,1.121s.22.461.223.482.064.131.135.271.27.543.448.9.366.748.405.862c.059.124.136.162.227.092s.069-.257-.04-.464c-.09-.2-.309-.657-.478-1.036s-.377-.809-.478-.987a15.474,15.474,0,0,1-.788-2.042c-.012-.11.054-.15.2-.144.123,0,.2-.021.178-.051s.129-.1.346-.133a3.147,3.147,0,0,0,.636-.2c.139-.07.263-.129.271-.135a4.279,4.279,0,0,1,.26.609,7.677,7.677,0,0,0,.833,1.61c.1.143.135.271.079.278s-.035.112.058.232a4.969,4.969,0,0,1,.426.81c.186.449.278.584.362.52a3.6,3.6,0,0,0-.448-1.36c-1.065-2.434-1.109-2.714-.541-2.823.174-.025.515-.115.757-.179a6.006,6.006,0,0,1,1.858-.334c.035.046.148.019.255-.062s.22-.107.26-.055a.151.151,0,0,0,.2,0,2.739,2.739,0,0,1,.73-.184c.329-.044.721-.115.869-.142a2.306,2.306,0,0,1,.68-.027l.413.035.4.9a9.789,9.789,0,0,0,1.119,2.236c.157.206.337.346.383.31s.033-.146-.037-.238c-.5-.647-1.409-3.184-1.2-3.341a3.108,3.108,0,0,1,.8-.01c.576.043.745.106.853.325a.311.311,0,0,1-.018.388c-.115.1-.112.122.048.11.18-.017.278.126.655.935.34.744.607,1.094.785,1.042.128-.037.153-.117.071-.223a10.069,10.069,0,0,1-.856-2.3c.017-.135.039-.138.08.01a2.72,2.72,0,0,0,1.7.343c.137-.1.643.778.739,1.282a1.584,1.584,0,0,0,.248.608,1.372,1.372,0,0,1,.231.476c.069.406.4.854.544.743a.2.2,0,0,0,.041-.26,12.476,12.476,0,0,1-1.125-3.367.118.118,0,0,1,.159.035c.04.053.139.039.23-.031.236-.181.881-.081.966.142.04.115.1.314.138.449a5.728,5.728,0,0,0,.492,1.133,3.165,3.165,0,0,1,.22.571,1.948,1.948,0,0,0,.376.667c.141.169.243.38.211.465a1.445,1.445,0,0,0,.3.7,6.622,6.622,0,0,1,.573,1.143,4.058,4.058,0,0,0,.337.756c.138.2.426.051.3-.144-.045-.074-.291-.586-.547-1.141s-.683-1.445-.939-2a13.594,13.594,0,0,1-.979-2.764c-.01-.139.1-.172.454-.117a1.592,1.592,0,0,0,.623-.007.46.46,0,0,1,.666.191,4.081,4.081,0,0,0,.246.526,2,2,0,0,1,.2.533,3.341,3.341,0,0,0,.267.665c.12.236.282.558.35.71a3.4,3.4,0,0,0,.332.544c.111.145.16.288.129.312-.076.059.175.592.588,1.29a4.729,4.729,0,0,1,.3.567c.024.079.11.1.186.039a.291.291,0,0,0,.011-.348c-.5-1-.783-1.609-.888-1.9a2.723,2.723,0,0,0-.3-.568,8.367,8.367,0,0,1-.558-1.361c-.39-1.126-.4-1.134-.075-1.078a.761.761,0,0,0,.405-.008,1.89,1.89,0,0,1,.618-.014c.582.05.789.242,1.092,1.049a6.34,6.34,0,0,0,.35.711,2.886,2.886,0,0,1,.32.733,3.528,3.528,0,0,0,.368.782,8.014,8.014,0,0,1,.4.744,2.967,2.967,0,0,0,.318.59,1.486,1.486,0,0,1,.215.55c.063.4.222.591.473.555.2-.028.207-.014.158.207-.054.245.055.5.13.3.021-.052.172.146.329.461s.378.7.493.866a1.913,1.913,0,0,1,.22.462,3.208,3.208,0,0,0,.369.719c.294.464.4.553.513.466s.05-.219-.154-.487a1.781,1.781,0,0,1-.329-.619,17.3,17.3,0,0,0-1.272-2.469,5.545,5.545,0,0,1-.422-.836c-.038-.129-.1-.191-.15-.15-.122.093-.59-.66-1.11-1.8-.229-.489-.607-1.3-.834-1.8-.468-1.006-.449-1.045.495-.995l.517.028.491.784a4.949,4.949,0,0,1,.539,1.036,2.559,2.559,0,0,0,.3.677,7.634,7.634,0,0,1,.385.708,4.9,4.9,0,0,0,.372.646,2.007,2.007,0,0,1,.257.493,3.663,3.663,0,0,0,.386.741,15.928,15.928,0,0,1,.831,1.465,14.385,14.385,0,0,0,.911,1.539c.037.033.321.467.617.965.912,1.524,1.224,2.011,1.847,2.936.325.488.695,1.051.8,1.256.2.334,2.355,3.394,3.012,4.254.565.739,3.18,3.921,3.74,4.543,1.276,1.416,1.55,1.726,2.043,2.291a13.591,13.591,0,0,1,.956,1.188,15.067,15.067,0,0,0,1.642,1.8,3.98,3.98,0,0,1,.514.466,25.983,25.983,0,0,0,2.377,2.13l.538.387-.019.607c-.005.656-.051.739-.351.678a18.789,18.789,0,0,1-2.594-2.05,3.514,3.514,0,0,0-.457-.423,4.162,4.162,0,0,1-.57-.541c-.27-.289-.793-.831-1.167-1.21s-1.239-1.383-1.921-2.226a8.8,8.8,0,0,0-1.367-1.5c-.065.024-.123-.051-.153-.185a2.4,2.4,0,0,0-.571-.747c-.29-.285-.769-.8-1.066-1.141a14.345,14.345,0,0,0-1.453-1.474c-.175-.119-3.049-3.875-3.439-4.5-.734-1.165-1.3-2.034-1.737-2.681-.257-.382-.639-1.009-.849-1.379s-.433-.756-.492-.832a11.949,11.949,0,0,1-.724-1.293c-.124-.257-.181-.285-.357-.151-.152.116-.157.205-.027.359a.906.906,0,0,1,.2.268,3.358,3.358,0,0,0,.17.316c.077.147.219.413.311.6s.342.669.576,1.069.544.949.694,1.208a14.7,14.7,0,0,0,.868,1.293,3.054,3.054,0,0,1,.564.958c-.052.185,4.967,6.793,6.155,8.094.466.514,1.126,1.266,1.468,1.667,1.107,1.3,2.4,2.839,2.595,3.077a.922.922,0,0,0,.325.282,2.708,2.708,0,0,1,.634.64,22.486,22.486,0,0,0,3.177,3.016c1.183.882,1.355,1.077,1.347,1.493,0,.205-.032.352-.067.306s-.062,0-.048.1c.013.221-1.63-.915-2.956-2.05a3.492,3.492,0,0,0-.62-.432,11.779,11.779,0,0,1-2.338-2.173c-2.8-3.356-4.756-5.6-5.43-6.2-.641-.57-3.175-3.283-3.372-3.6-.219-.365-1.109-1.687-1.818-2.692-.455-.641-1.067-1.537-1.364-1.988-.446-.662-.577-.8-.726-.761s-.106.177.138.607a6.783,6.783,0,0,0,.486.714.981.981,0,0,1,.22.351c.079.277,3.43,5.131,4.056,5.871.041.054.7.874,1.475,1.818,2.5,3.085,3.756,4.58,3.873,4.622a8.965,8.965,0,0,1,.937,1.035c.449.539,1.085,1.261,1.41,1.59s.651.663.709.739.506.518,1,.975,1.032.986,1.218,1.182a4.957,4.957,0,0,0,.508.444,4.646,4.646,0,0,1,.695.592,7.074,7.074,0,0,0,1.1.9.818.818,0,0,1,.157.979c-.115.15-.234.119-.665-.191-.619-.445-1.995-1.567-2.492-2.044a11.35,11.35,0,0,0-1.269-1.058,15.117,15.117,0,0,1-1.717-1.851c-1.213-1.475-2.026-2.411-2.486-2.87-.787-.761-2.969-2.982-3.394-3.443-.261-.294-.616-.663-.779-.829s-.586-.625-.937-1.022-.882-.98-1.17-1.292a7.993,7.993,0,0,1-.577-.644c-.021-.043-.441-.654-.928-1.355s-1.037-1.514-1.218-1.8c-.185-.3-.36-.486-.413-.445s-.132-.078-.212-.308c-.1-.294-.162-.371-.321-.358s-.183-.017-.136-.161c.1-.268-.988-1.781-1.171-1.641-.068.052-.1.15-.061.2s.158.253.259.417.529.8.936,1.4.884,1.329,1.059,1.605.652,1.011,1.059,1.605a10.589,10.589,0,0,1,.737,1.153c0,.034.107.124.24.2a.656.656,0,0,1,.266.364.924.924,0,0,0,.344.449c.175.12.3.266.279.318-.043.117,3.2,4.34,4.46,5.815a29.7,29.7,0,0,0,2.806,3.131c.056-.005.229.188.4.43a3.874,3.874,0,0,0,.672.753c.2.172.856.819,1.459,1.433a16.864,16.864,0,0,0,1.554,1.433,6.392,6.392,0,0,1,.758.627c.163.166.546.525.846.791,1.2,1.064,1.251,1.146,1.082,1.479-.152.274-.181.284-.332.086a1.06,1.06,0,0,0-.433-.3,1.146,1.146,0,0,1-.394-.23,9.743,9.743,0,0,0-.9-.667,23.16,23.16,0,0,1-1.953-1.526c-.93-.821-3.714-4.381-3.613-4.628.042-.118.006-.15-.129-.106a.323.323,0,0,1-.32-.118c-.223-.276-1.167-1.306-1.46-1.578-.138-.134-1-1-1.914-1.917s-1.871-1.878-2.152-2.135-.7-.675-.941-.947-.833-.884-1.295-1.377a15.981,15.981,0,0,1-2.543-3.261c.011-.286-.253-.772-1.144-2.048-.414-.589-.806-1.2-.87-1.327-.193-.395-.229-.078-.037.33.164.357.157.363-.093.179l-.257-.178.191.265c.11.159.242.238.311.186s.1-.041.067.057c-.067.2.2.793.31.705a.216.216,0,0,0,.05-.219c-.026-.112-.017-.132.048-.047a.55.55,0,0,1,.059.376c-.026.2.066.386.412.76a1.678,1.678,0,0,1,.409.582,1.717,1.717,0,0,0,.347.627,4.4,4.4,0,0,1,.474.809,1.055,1.055,0,0,0,.335.469,2.351,2.351,0,0,1,.476.686c.615,1.246,5.749,7.753,6.2,7.854.133.032.193.094.162.18-.031.07.092.279.26.451s.581.632.906,1.01a8.394,8.394,0,0,0,.836.871,16.287,16.287,0,0,1,1.119,1.258c.484.584,1.116,1.285,1.4,1.561s.639.6.761.711.377.352.563.547.676.631,1.08.986.868.786,1.029.951c.337.346,1.566,1.4,1.966,1.686.207.144.265.267.225.468a.818.818,0,0,1-.1.32,9.363,9.363,0,0,1-2.075-1.275,17.22,17.22,0,0,1-1.418-1.269c-.431-.421-.868-.835-.974-.911a32.349,32.349,0,0,1-2.407-2.688,6.347,6.347,0,0,0-.991-1.029c-.075,0-.242-.189-.357-.4a19.54,19.54,0,0,0-2.513-2.56c-.425-.4-.908-.887-1.889-1.948-.724-.774-.983-1.048-1.7-1.863-.382-.421-.817-.9-.981-1.062s-.569-.6-.9-.982-.727-.808-.9-.967-.793-.927-1.375-1.7c-.87-1.17-1.086-1.4-1.193-1.322-.129.1.4.9,1.554,2.362a5.7,5.7,0,0,1,.361.472,3.464,3.464,0,0,0,.812,1.046c.125.038.4.444.339.49a16,16,0,0,0,1.292,1.958,85.768,85.768,0,0,0,6.883,7.925c.216.186.3.3.214.3a5.234,5.234,0,0,1-1.466-1.064c-.013-.063-.08-.073-.164-.009-.107.082-.228.018-.4-.211a.786.786,0,0,1-.207-.445c.1-.247-.24-.709-.533-.728a6.72,6.72,0,0,1-2.051-1.765c-.2-.224-.629-.666-.969-1s-.744-.784-.925-1.019a9.537,9.537,0,0,0-.621-.733,22.075,22.075,0,0,1-2.755-3.255,8.469,8.469,0,0,0-1.074-1.388c-.108-.062-.172-.147-.138-.2a3.933,3.933,0,0,0-.619-1.109l-.687-1.009-.271.135c-.323.163-.341.25-.12.539.1.13.23.174.314.11.175-.134.645.448,1.178,1.429.191.361.848,1.345,1.458,2.206s1.364,1.941,1.665,2.4c.526.83.532.837.221.809s-.313-.013.429.844c1.2,1.378,2.69,3.028,3.6,3.963.456.485.943.995,1.082,1.129.215.235,1.775,1.625,2.4,2.14.11.1.263.138.331.086.153-.117.718.622.641.839a7.075,7.075,0,0,0,.957,1.6c.976,1.4,1.019,1.444,1.194,1.309a.314.314,0,0,0,.141-.289c-.029-.087.261.2.648.626.937,1.036,1.358,1.474,2.25,2.326a3.626,3.626,0,0,1,.735.851c-.032.242-.573.245-.76,0-.094-.122-.217-.221-.267-.207a10.1,10.1,0,0,1-1.782-1.367,1.075,1.075,0,0,0-.459-.3.139.139,0,0,1-.144-.109,3.647,3.647,0,0,0-.728-.747,13.471,13.471,0,0,1-1.192-1.178c-.255-.3-.689-.79-.966-1.073s-.99-1.137-1.59-1.875a13.893,13.893,0,0,0-1.9-2.026c-.444-.359-1.024-.882-1.3-1.158a2.237,2.237,0,0,0-.605-.49c-.063.012-.143-.061-.176-.167a4.3,4.3,0,0,0-.761-.868c-.387-.381-.869-.869-1.073-1.088a2.346,2.346,0,0,0-.446-.408.577.577,0,0,1-.146-.286.684.684,0,0,0-.287-.36,7.711,7.711,0,0,1-1.145-1.275c-.961-1.209-1.28-1.484-1.251-1.084a45.907,45.907,0,0,0,3.623,4.658,6.381,6.381,0,0,1,.813,1.141c.083.189.185.354.246.355a6.584,6.584,0,0,1,.87.979c.9,1.133,2.216,2.676,2.572,3.031.146.143.553.58.912.97s.784.851.961,1,.372.345.445.408c.072.078.3.3.521.507s.537.544.709.738.5.533.715.746.52.521.682.686.523.495.806.737.631.557.77.691a6.992,6.992,0,0,0,.615.52c.539.421.666.651.5.874-.124.155-.232.155-.454.022-.159-.1-.444-.264-.643-.367a4.834,4.834,0,0,1-.585-.386c-.137-.1-.343-.244-.471-.316a3.26,3.26,0,0,1-.945-.714c-.162-.165-.685-.611-1.153-1a10.269,10.269,0,0,1-.9-.776,8.7,8.7,0,0,0-.791-.687,16.476,16.476,0,0,1-3.087-3.34c-1.508-1.877-2.525-3.08-3.215-3.809-.2-.219-.6-.648-.89-.973-.841-.927-1.333-1.4-1.457-1.385-.069.006-.155-.122-.208-.288-.055-.2-.127-.276-.221-.241a61.859,61.859,0,0,1-4.646-5.964c-.162-.274-.321-.467-.367-.432s-.137-.1-.207-.3-.071-.392-.017-.434.034-.1-.086-.127c-.325-.077-.682-.481-.632-.7.035-.16.072-.175.141-.084.152.2.135-.091-.021-.359a.268.268,0,0,0-.4-.142c-.385.161-.409.192-.254.362.071.093.286.421.477.735s.645,1.016,1.01,1.558.826,1.254,1,1.578a10.316,10.316,0,0,0,.705,1.127,6.808,6.808,0,0,1,.654,1.2,3.963,3.963,0,0,0,.9,1.352c.347.374,1.1,1.269,1.686,1.983s1.679,2.085,2.45,3.029c1.646,2.026,3.621,4.308,4.686,5.4.422.426.855.881.969,1a30.558,30.558,0,0,0,2.2,2.155c.509.444,1.022.91,1.136,1.028a7.754,7.754,0,0,0,1.153,1c.128.072.437.27.693.448.471.316.471.316.305.636-.307.563-.307.563-1.7-.4a9.883,9.883,0,0,0-.913-.593,4.5,4.5,0,0,1-.609-.513,3.251,3.251,0,0,0-.611-.5,4.5,4.5,0,0,1-.695-.639,6.981,6.981,0,0,0-.794-.722c-.152-.088-.249-.183-.211-.212s-.024-.064-.125-.085a1.245,1.245,0,0,1-.422-.33c-.124-.145-.569-.554-.973-.91a17.106,17.106,0,0,1-2.138-2.448,18.551,18.551,0,0,0-1.525-1.852,8.36,8.36,0,0,1-.921-.95c-.433-.5-.946-1.063-1.127-1.252s-.649-.722-1.042-1.172-.82-.93-.966-1.074a17.972,17.972,0,0,1-2.7-3.287c.038-.029.011-.08-.06-.11a26.277,26.277,0,0,1-2.411-3.168.949.949,0,0,0-.37-.405c-.175-.071-.306-.273-.482-.693a2.724,2.724,0,0,0-.551-.847,2.3,2.3,0,0,1-.75-1.044c-.01-.124-.05-.143-.117-.043a.447.447,0,0,0,.057.39c.092.136.355.575.581.981s.84,1.3,1.342,1.993c1.66,2.281,9.825,12.86,10.37,13.446a13.906,13.906,0,0,1,.991,1.186,10.528,10.528,0,0,0,1.077,1.218c.333.325.666.651.724.726s.384.408.716.732a11.244,11.244,0,0,1,.808.82c.255.3,1.76,1.685,2.837,2.589,1.138.966,1.229,1.1.924,1.334-.16.122-.271.135-.3.036a.382.382,0,0,0-.274-.2,8.076,8.076,0,0,1-1.871-1.262,7.045,7.045,0,0,0-.631-.557c-.181-.127-.313-.267-.308-.307a1.52,1.52,0,0,0-.4-.416c-.222-.195-.581-.523-.792-.736s-.552-.531-.763-.7c-.241-.2-.374-.379-.371-.5s-.04-.163-.126-.133c-.164.053-.79-.544-2.525-2.418a9.76,9.76,0,0,0-1.4-1.343c-.069.006-.276-.187-.457-.423a7.463,7.463,0,0,0-.689-.79,25.117,25.117,0,0,1-1.916-2.11c-.351-.395-.968-1.107-1.383-1.587s-1.17-1.387-1.687-2.032-.975-1.211-1.031-1.253-.485-.618-.979-1.28-1.11-1.482-1.387-1.814-.534-.667-.6-.75a3.9,3.9,0,0,1-.367-.685c-.172-.351-.316-.555-.436-.585-.1-.02-.181-.079-.173-.132a8.285,8.285,0,0,0-1.552-2.218c-.161-.023-.1.116.355.827.256.4.536.859.622,1.033.367.686,1.79,2.8,2.892,4.287.579.789,5.067,6.451,5.812,7.329,2.246,2.667,2.661,3.147,3.12,3.653.262.294.733.816,1.036,1.164s.8.9,1.083,1.211.7.757.9.982a42.366,42.366,0,0,0,4.846,4.725c.445.251.472.46.094.676a.339.339,0,0,1-.421-.028,2.32,2.32,0,0,0-.406-.294,37.79,37.79,0,0,1-3.154-2.419c-.236-.229-.454-.437-.486-.462a11.839,11.839,0,0,1-1.125-1.156c-.027-.051-.459-.5-.954-1.009s-.959-.97-1.017-1.046c-.175-.228-1.3-1.459-1.59-1.731-.5-.485-1.608-1.74-3.494-3.969a14.464,14.464,0,0,0-1.169-1.292,8.514,8.514,0,0,1-.667-.7c-.82-.978-7.179-9.292-7.656-10.026-.34-.524-.48-.659-.615-.615s-.117.149.107.473c.6.868.836,1.234,1.269,1.927.242.4,2.245,3.078,4.44,5.964,3.531,4.632,4.564,5.919,6.705,8.387.279.317.795.914,1.139,1.315,1.667,1.927,2.064,2.383,2.3,2.612.146.143.609.67,1.05,1.166a33.856,33.856,0,0,0,3.4,3.28c.7.574.873.841.653,1.059-.151.165-.263.129-.762-.238a3.947,3.947,0,0,0-.772-.472.258.258,0,0,1-.2-.164c0-.069-.211-.26-.456-.423a5.055,5.055,0,0,1-.843-.707c-.218-.221-.651-.614-.959-.874s-.722-.63-.911-.812c-.4-.4-.655-.634-1.559-1.453a4.029,4.029,0,0,1-.692-.715c-.006-.056-.06-.063-.12-.016s-.113.027-.12-.03a3.912,3.912,0,0,0-.638-.755,14.119,14.119,0,0,0-1.51-1.406c-.226-.2-1.018-1.093-1.748-1.985-2.426-2.95-3.177-3.838-3.46-4.081a3.681,3.681,0,0,1-.481-.549c-.113-.179-.266-.316-.342-.306s-.228-.188-.386-.49a2.881,2.881,0,0,0-.458-.677,31.373,31.373,0,0,1-2.472-3.121,1.123,1.123,0,0,0-.213-.4,1.6,1.6,0,0,1-.272-.529c-.04-.163-.1-.191-.2-.115-.3.227.2,1.019,2.531,4.067,1.457,1.9,1.667,2.227,1.545,2.32-.091.07-.079.134.025.175a3.454,3.454,0,0,1,.684.721c.522.651,1.776,2.084,2.342,2.667.414.431,2.684,3.02,3.6,4.106s1.87,2.192,1.893,2.174a13.127,13.127,0,0,1,1.268,1.373,21.417,21.417,0,0,0,2.87,2.709c1.121.881,1.312,1.1,1.127,1.3-.168.19-.611.117-.809-.142a10.927,10.927,0,0,0-1.762-1.261,1.737,1.737,0,0,1-.421-.282c-.091-.087-.349-.3-.559-.478a9.9,9.9,0,0,1-.793-.72,3,3,0,0,0-.526-.468,5.363,5.363,0,0,1-.618-.6c-.281-.3-.745-.783-1.043-1.063s-.7-.709-.912-.957a3.978,3.978,0,0,0-.556-.553,6.216,6.216,0,0,1-.7-.674c-.293-.319-.968-1.059-1.513-1.646s-1.1-1.2-1.247-1.377-.585-.638-.956-1.044c-.682-.734-2.977-3.592-5.524-6.874a14.608,14.608,0,0,0-1.448-1.719,1.168,1.168,0,0,0,.1.561,15.136,15.136,0,0,0,2.1,2.962c1.059,1.353,1.942,2.476,1.975,2.488a.445.445,0,0,1,.1.13c.217.425,5.766,7.063,5.967,7.152.077.023,1.119,1.2,2.209,2.462a44.033,44.033,0,0,0,3.87,3.985c.3.28.719.719.944.982.332.386.385.5.263.6-.144.11-.894-.174-1.192-.453-.073-.063-.289-.236-.483-.379a11.047,11.047,0,0,1-1.72-1.522c0-.041-.085-.127-.2-.185a2.649,2.649,0,0,1-.637-.549,8.926,8.926,0,0,0-.843-.77,7.927,7.927,0,0,1-.717-.623c-.162-.165-.4-.4-.521-.507s-.44-.448-.709-.738a5.583,5.583,0,0,0-.564-.547c-.071-.03-2.163-2.355-3-3.335a2.018,2.018,0,0,0-.473-.446.283.283,0,0,1-.139-.245c-.028-.147-.16-.288-.4-.395a13.015,13.015,0,0,1-2.428-2.733c-.672-.862-.588-.769-1.212-1.489-.285-.325-1-1.208-1.586-1.964-1.054-1.331-1.072-1.354-1.022-.957.056.357.359.8,2.455,3.557,1.324,1.73,2.847,3.657,3.385,4.283s1.271,1.456,1.614,1.857.833.946,1.085,1.212.822.917,1.272,1.442.885,1.015.965,1.073.5.525.931,1.027,1.148,1.248,1.572,1.66c.723.693,2.411,2.457,2.884,3.012.161.179.157.268-.024.442-.212.2-.271.183-.874-.321-.352-.286-.919-.759-1.265-1.038a28.222,28.222,0,0,1-3.58-3.481c-.169-.221-.32-.323-.388-.271-.122.094-.943-.775-.887-.939.029-.057-.018-.118-.089-.148a3.66,3.66,0,0,1-.591-.6c-.256-.287-.607-.684-.79-.858-.364-.35-1.289-1.418-2.666-3.059-1.816-2.185-2.551-3.035-2.883-3.375-.194-.19-.669-.733-1.057-1.208-.749-.9-1.027-1.075-1.048-.661-.011.239.767,1.225,2.488,3.159a12.154,12.154,0,0,1,1.832,2.332c.055.15.15.259.226.249.18-.017.494.409.43.577-.032.085.032.168.18.236.129.058.22.146.2.212a21.515,21.515,0,0,0,2.359,3.038c.473.556,1.267,1.484,1.75,2.067a31.31,31.31,0,0,0,3.677,4.1c.424.269.49.435.23.585a.356.356,0,0,1-.424-.049.38.38,0,0,0-.354-.116c-.132.065-.161.027-.222-.29-.044-.279-.083-.346-.175-.276-.061.047-.21-.021-.33-.146a.9.9,0,0,0-.394-.278c-.106-.028-.172-.1-.163-.166s-.061-.111-.158-.1-.408-.281-.823-.808a4.138,4.138,0,0,0-.967-.963c-.443-.217-.826-.734-.681-.954.08-.133.027-.249-.229-.489a4.78,4.78,0,0,0-.71-.629c-.008.006-.364-.4-.79-.906a12.415,12.415,0,0,0-.924-1.019c-.083-.046-.751-.839-1.479-1.744a43.261,43.261,0,0,0-3.875-4.451,6.991,6.991,0,0,1-.836-.919c-.747-.914-1.151-1.221-.937-.72a29.116,29.116,0,0,0,2.481,3.15c.359.39.992,1.138,1.411,1.638s.792.941.823.966a.358.358,0,0,1,.1.142,22.317,22.317,0,0,0,1.679,2.1c.195.081,2.366,2.683,5.375,6.444a6.269,6.269,0,0,1,.947,1.365,1.212,1.212,0,0,0,.043.45l.085.332-.368-.323a18.143,18.143,0,0,1-1.913-1.931c-.5-.566-1.143-1.226-1.418-1.475-.457-.423-.866-.848-1.98-2.084a3.722,3.722,0,0,0-.528-.516,9.382,9.382,0,0,1-.844-.961,8.984,8.984,0,0,0-.867-.991,4.1,4.1,0,0,1-.615-.677,1.917,1.917,0,0,0-.737-.679c-.18-.046-.245-.115-.239-.264s-.054-.213-.154-.233c-.175-.024-.971-.924-2.853-3.241-.7-.865-1.459-1.782-1.687-2.031s-.86-1.045-1.434-1.765l-1.043-1.317.132.5c.106.439.371.816,1.964,2.87,2.648,3.4,5.37,6.751,5.493,6.754a5.782,5.782,0,0,1,.89.974c.427.542,1.4,1.637,2.145,2.441s1.4,1.515,1.464,1.6c.086.127.822.87,1.645,1.676.153.138.5.525.77.85.7.825,1.313,1.4,1.493,1.382.09-.009.076-.058-.038-.128-.095-.061-.138-.149-.085-.189s.194-.015.3.074a.324.324,0,0,0,.374.015c.16-.122.183-.091.279.271.132.5.08.578-.352.582a7.492,7.492,0,0,1-2.626-1.4,3.686,3.686,0,0,0-.689-.633,10.305,10.305,0,0,1-1.148-1.09,8.792,8.792,0,0,0-1.1-1.043,13.979,13.979,0,0,1-1.436-1.389c-.562-.608-1.231-1.293-1.482-1.511a12.765,12.765,0,0,1-1.011-1.038c-.3-.348-.681-.748-.832-.9s-.524-.591-.841-.989a8.062,8.062,0,0,0-.9-.988c-.178-.154-.3-.328-.276-.392a.118.118,0,0,0-.062-.16,5.289,5.289,0,0,1-1.141-1.4,6.664,6.664,0,0,0-.9-1.387c-3.549-4.749-3.243-4.161-2.99-5.757.186-1.192.347-1.472,1.085-1.866a2.816,2.816,0,0,0,.817-.638,1.644,1.644,0,0,1,.675-.491,2.21,2.21,0,0,0,1.278-1.329c.067-.244.164-.607.231-.8.205-.678-.112-.447-.485.345a2.768,2.768,0,0,1-1.106,1.365,9.808,9.808,0,0,1-2.075,1.455,1.175,1.175,0,0,0-.707.734,1.582,1.582,0,0,0-.172.771,1.008,1.008,0,0,1-.062.566,1.7,1.7,0,0,0-.122.662,2.285,2.285,0,0,1-.28,1.386c-.248.321-.287.3-.79-.243a3.125,3.125,0,0,0-.765-.622c-.18-.092-.322-.2-.321-.261s-.127-.181-.291-.285a2.954,2.954,0,0,1-.584-.5,1.637,1.637,0,0,0-.423-.365,11.173,11.173,0,0,1-1.813-1.706c-.243-.271-.743-.83-1.126-1.251s-.738-.824-.8-.907c-.142-.17-.344.056-.233.25.194.347.526.829,2.027,2.918a21.279,21.279,0,0,0,2.882,3.689,7.347,7.347,0,0,1,1.05,1.153c.035.094,1.367,2.023,1.531,2.222.332.388,1.127,1.458,1.572,2.119a3.59,3.59,0,0,0,.695.8c.135.067.181.127.113.179s-.006.149.11.254.575.61,1.026,1.136,1.117,1.271,1.483,1.655,1.054,1.126,1.505,1.651,1.142,1.288,1.533,1.689.788.824.855.928a7.2,7.2,0,0,0,.6.606,30.773,30.773,0,0,1,2.177,2.357,2.5,2.5,0,0,0,.524.48,13.692,13.692,0,0,1,1.664,1.638c.062.1.151.151.2.115s.179.093.311.281c.44.607.157.521-1.351-.392-.279-.161-.665-.4-.875-.513a1.958,1.958,0,0,1-.51-.383.36.36,0,0,0-.286-.169.2.2,0,0,1-.194-.128,3.19,3.19,0,0,0-.576-.564,8.969,8.969,0,0,1-1.252-1.084c-.193-.19-.441-.434-.563-.547s-.383-.358-.571-.542a1.719,1.719,0,0,0-.525-.37,3.118,3.118,0,0,1-.761-.71c-.63-.713-.684-.783-1.853-1.965-.74-.762-1.807-1.952-2.714-3.058a14.683,14.683,0,0,1-2.135-3.282c.055-.15.042-.166-.064-.084-.145.111-.324-.139-1.859-2.588a22.437,22.437,0,0,0-3.321-4.248,16.464,16.464,0,0,1-1.417-1.489,2.311,2.311,0,0,0-.735-.692,1.388,1.388,0,0,1-.572-.494,1.139,1.139,0,0,0-.618-.492c-.141-.026-.217-.077-.163-.119s-.093-.326-.408-.738a2.285,2.285,0,0,1-.458-.772c.074-.189-.4-.54-.56-.418-.084.065-.1.124-.037.126a.17.17,0,0,1,.1.191,4.335,4.335,0,0,0,.6,1.023,4.11,4.11,0,0,1,.558.9,1.367,1.367,0,0,0,.255.444,39.3,39.3,0,0,0,2.5,3.282,2.1,2.1,0,0,1,.385.55,1.939,1.939,0,0,0,.348.518c.042.007.889,1.036,1.885,2.292s2.216,2.786,2.722,3.4,1.385,1.67,1.951,2.361,1.432,1.683,1.915,2.22a9.057,9.057,0,0,1,.9,1.072,2.289,2.289,0,0,0,.456.485c.318.289.42.439.377.556-.031.085-.015.122.051.083s.157,0,.235.086.5.581.949,1.1a11.946,11.946,0,0,0,.9.975c.038.019.451.463.909.983a13.889,13.889,0,0,0,1.225,1.286c.221.194.526.467.677.617s.591.552.971.875a8.886,8.886,0,0,1,.879.849.843.843,0,0,0,.3.267,1.713,1.713,0,0,1,.491.421c.333.372.347.422.136.414a.539.539,0,0,1-.326-.125c-.134-.176-.706-.451-.79-.387-.046.035-.088,0-.091-.087a.259.259,0,0,0-.2-.184,24.685,24.685,0,0,1-3.592-2.58,7.748,7.748,0,0,0-1.249-1.158,10.018,10.018,0,0,1-1.1-1.043c-.488-.5-.974-1.005-1.1-1.118a17.7,17.7,0,0,1-1.818-1.918.821.821,0,0,0-.326-.331c-.17-.064-.294-.21-2.811-3.249a18.562,18.562,0,0,0-1.631-1.832.841.841,0,0,1-.279-.475,4.077,4.077,0,0,0-.546-1.03,15.31,15.31,0,0,1-.9-1.482,14.3,14.3,0,0,0-2.5-3.152,28.082,28.082,0,0,1-3.6-3.929,7.177,7.177,0,0,0-1.078-1.3c-.058.019-.124-.1-.156-.268a.51.51,0,0,0-.179-.345c-.17-.064-.264.177-.123.3a11.074,11.074,0,0,1,1.266,2.112,12.952,12.952,0,0,0,1.935,2.372c.093.075.135.162.09.2a19.473,19.473,0,0,0,2.452,3.27c.209.179.349.361.326.427a14.345,14.345,0,0,0,1.814,2.262.185.185,0,0,1,.08.215c-.024.08.049.191.181.285a8.342,8.342,0,0,1,.977,1.087c.672.863,3.371,4.028,4.235,4.985.2.219.621.686.929,1.042s.762.854,1.014,1.12c.607.635,1.508,1.624,1.942,2.113.309.356,1.18,1.211,3.244,3.183.292.272.825.747,1.188,1.048.819.691.876.767.7.9s-1.231-.41-2.321-1.172c-.4-.272-.872-.588-1.063-.7a17.232,17.232,0,0,1-2.679-2.4c-.315-.3-.979-.917-1.481-1.367-.9-.8-1.927-1.81-2.808-2.756-.244-.271-.581-.618-.744-.783s-.622-.67-1.007-1.126-1.055-1.221-1.488-1.725a48.526,48.526,0,0,1-3.434-4.522A18.173,18.173,0,0,0,60.8,1133.4a21.845,21.845,0,0,0-2.055-2.244,16.049,16.049,0,0,1-1.416-1.6c-.211-.26-.363-.363-.446-.3-.16.123-.193.064,1.141,1.918,1.7,2.326,1.922,2.638,3.669,4.827a40.278,40.278,0,0,0,2.991,3.643,5.684,5.684,0,0,1,.735.8c.342.416.845,1,1.115,1.285s1.118,1.271,1.9,2.169c2.045,2.374,2.4,2.763,3.732,4.09.659.656,1.478,1.491,1.812,1.864a34.056,34.056,0,0,0,2.713,2.6c1.072.943,1.63,1.531,1.457,1.542a4.7,4.7,0,0,1-1.669-.777,3.44,3.44,0,0,0-.628-.364.969.969,0,0,1-.336-.2c-.1-.081-.439-.353-.77-.6a28.577,28.577,0,0,1-3.774-3.261.829.829,0,0,0-.462-.287c-.2-.026-.262-.089-.263-.233a.61.61,0,0,0-.2-.411c-.116-.1-.382-.373-.595-.572a2.979,2.979,0,0,0-.511-.431,9.656,9.656,0,0,1-1.317-1.469c-.093-.122-.217-.173-.27-.132s-.11,0-.116-.1c-.025-.27-.107-.376-.6-.811-.238-.216-.9-.955-1.467-1.632a10.6,10.6,0,0,0-1.155-1.29,6.474,6.474,0,0,1-.817-.91c-.369-.467-.959-1.175-1.318-1.566s-1.127-1.3-1.725-2-1.252-1.494-1.472-1.749-.787-.967-1.273-1.586-.956-1.249-1.062-1.374c-1.3-1.6-1.28-1.593-1.455-1.459-.152.117-.08.243.784,1.357a10.857,10.857,0,0,1,.963,1.353,42.972,42.972,0,0,0,3.043,3.82c.31.343,1.056,1.223,1.656,1.959a8.613,8.613,0,0,0,1.268,1.373.25.25,0,0,1,.192.2A11.248,11.248,0,0,0,64.4,1142.9c.242.237.8.894,1.269,1.47a8.348,8.348,0,0,0,1,1.092,10.88,10.88,0,0,1,1.621,1.8,3.794,3.794,0,0,0,.483.536c.122.112.506.519.857.915a4.22,4.22,0,0,0,.79.748,1.368,1.368,0,0,1,.414.446,2.485,2.485,0,0,0,.522.556,4.362,4.362,0,0,1,.716.732,2.506,2.506,0,0,0,.655.635,1.561,1.561,0,0,1,.535.447,10.6,10.6,0,0,0,1.472,1.434c.217.173.6.505.854.738a3.156,3.156,0,0,0,.61.5c.1.034.063.1-.1.2a.4.4,0,0,1-.429-.023,2.75,2.75,0,0,0-.672-.342,1.855,1.855,0,0,1-.62-.336,1.758,1.758,0,0,0-.5-.333,13.8,13.8,0,0,1-3.306-2.569.735.735,0,0,0-.247-.2,3.9,3.9,0,0,1-.625-.548,21.362,21.362,0,0,0-1.761-1.624c-.429-.372-.84-.735-.9-.818s-.587-.626-1.173-1.217-1.311-1.351-1.628-1.7-.656-.717-.779-.829-.709-.785-1.313-1.5a17.364,17.364,0,0,0-1.172-1.327c-.059-.014-1.016-1.2-2.141-2.626s-2.081-2.61-2.153-2.641a.131.131,0,0,1-.078-.181.141.141,0,0,0-.079-.181,25.294,25.294,0,0,1-1.641-2.019c-.833-1.089-1.547-1.992-1.594-2s-.149.041-.224.134c-.093.131-.069.257.093.436a1.269,1.269,0,0,0,.356.308.145.145,0,0,1,.094.17c-.043.117,3.3,4.457,6.809,8.838a30.315,30.315,0,0,0,2.659,3.1c.146.144.6.641,1.015,1.121,1.114,1.3,2.762,3.106,3.48,3.824.785.789,1.031,1.048,1.895,2.018a6.318,6.318,0,0,0,.8.8,16.051,16.051,0,0,1,1.6,1.52,3.051,3.051,0,0,0,.616.52,3.859,3.859,0,0,1,1.275,1.272c.022.187,0,.191-.147.014-.093-.122-.208-.178-.262-.137a.139.139,0,0,1-.179-.045,8.473,8.473,0,0,0-1.348-.767,10.606,10.606,0,0,1-1.17-.835c-.376-.3-2.041-1.673-2.707-2.229-.978-.821-4.077-3.814-4.837-4.681-.689-.79-1.306-1.441-1.992-2.1-.29-.285-1.138-1.266-1.886-2.181a9.417,9.417,0,0,0-1.5-1.651c-.091.009-.132-.031-.1-.1a19.531,19.531,0,0,0-2.279-2.98,17.142,17.142,0,0,1-1.151-1.379c-.567-.725-1.124-1.422-1.223-1.552s-.408-.533-.679-.918c-.762-1.059-.811-1.107-1.031-.939-.16.122-.149.2.091.5.153.185,1.029,1.376,1.928,2.632a57.483,57.483,0,0,0,3.5,4.572c2.021,2.5,2.6,3.179,3.131,3.715.242.237.82.883,1.28,1.436.918,1.074,1.234,1.425,1.777,1.961.3.3,1.073,1.149,1.87,2.049a1.358,1.358,0,0,0,.4.334c.09.039.17.112.176.167a2.739,2.739,0,0,0,.5.559c.274.249.626.6.78.768,1.117,1.223,1.664,1.782,2.8,2.836,1.888,1.758,1.876,1.742,2.008,1.725.152-.007.573.528.466.61-.083.064-.207.013-1.254-.55a18.746,18.746,0,0,1-3.479-2.544c-.1-.1-.281-.257-.4-.369s-.563-.5-.968-.855-.832-.74-.961-.846-.741-.653-1.387-1.2a28.973,28.973,0,0,1-3.279-3.229c-.513-.561-1.1-1.2-1.3-1.419-.355-.369-.758-.833-2.836-3.266-.722-.849-1.358-1.57-1.4-1.582-.02-.01-3.61-4.5-4-5.009-.38-.481-.683-.878-.976-1.245-.154-.185-.265-.221-.387-.127s-.117.211.029.4c2.876,3.79,4.547,5.944,4.65,5.984.072.03.084.094.022.141s-.061.095,0,.117a7.069,7.069,0,0,1,.721.8,14.061,14.061,0,0,0,1.078,1.2c.256.24.863.924,1.353,1.5s1.064,1.264,1.284,1.505.672.719.981,1.061.76.82.981,1.061a4.978,4.978,0,0,0,1.032.986c.122.064.158.144.09.2s-.014.155.1.26.413.4.665.663.571.59.724.726.483.489.744.783.7.745.969,1,.752.73,1.07,1.066.677.727.8.853a4.576,4.576,0,0,0,1.223,1.094c.069,0,.241.141.393.339a8.406,8.406,0,0,0,1.064,1c.951.771.891.707.716.842a.189.189,0,0,1-.255-.034,3.594,3.594,0,0,0-.711-.472,18.4,18.4,0,0,1-2.239-1.427,6.3,6.3,0,0,0-.66-.437,1.449,1.449,0,0,1-.415-.369,4.632,4.632,0,0,0-.747-.661c-.3-.218-.623-.467-.714-.554s-.253-.2-.345-.278a4.816,4.816,0,0,1-.584-.557c-.575-.611-.815-.814-1.055-.86a1.44,1.44,0,0,1-.508-.4c-.166-.186-.578-.6-.925-.924a29.33,29.33,0,0,1-2.9-3.062c-.335-.407-1-1.193-1.478-1.744s-1.416-1.694-2.09-2.543a23.543,23.543,0,0,0-3.367-3.8c-.179-.092-.3-.2-.25-.232a19.566,19.566,0,0,0-1.894-2.477c-.025-.017-.289-.347-.58-.727-.466-.609-.547-.669-.7-.552-.175.134-.113.232,1.594,2.369.973,1.225,2.045,2.531,2.364,2.9.709.8,1.381,1.553,1.457,1.6.031.026.212.261.409.52a33.074,33.074,0,0,0,2.342,2.968c.13.106.838.954,1.576,1.887s1.658,1.994,2.032,2.371.9.927,1.172,1.217.676.727.905.963.535.557.666.7a3.245,3.245,0,0,0,.31.295c.031.024.239.265.475.542a19.53,19.53,0,0,0,1.548,1.534,31.7,31.7,0,0,1,2.574,2.464,2.658,2.658,0,0,0,.675.583c.219.1.3.182.279.318s-.14.132-.437,0a4.539,4.539,0,0,1-.469-.234,5.819,5.819,0,0,0-1.132-.753.365.365,0,0,1-.244-.224c-.028-.1-.1-.177-.168-.173a.784.784,0,0,1-.377-.194c-.149-.116-.452-.307-.674-.439a1.93,1.93,0,0,1-.619-.541c-.286-.421-.606-.635-.767-.513-.084.064-.217-.015-.361-.219a5.347,5.347,0,0,0-1.329-1.279,1.373,1.373,0,0,1-.468-.439,2.161,2.161,0,0,0-.526-.514,8.409,8.409,0,0,1-1.08-1.1c-.476-.542-1.029-1.17-1.224-1.394s-.9-1.051-1.557-1.829-1.229-1.451-1.282-1.471a60.409,60.409,0,0,1-4.512-5.125c-1.605-1.972-3.1-3.774-3.476-4.165-.166-.186-.289-.394-.267-.459s-.036-.142-.161-.179a.784.784,0,0,1-.389-.367c-.106-.185-.216-.282-.284-.23-.053.041-.048.159.014.255.107.172.791,1.1,1.014,1.374.058.076.822,1.074,1.682,2.215s1.636,2.107,1.707,2.137.093.074.055.1a8.629,8.629,0,0,0,1.472,1.893c.211.213.657.717,1.008,1.112a13.655,13.655,0,0,0,1.088,1.138,44.464,44.464,0,0,1,3.2,3.677,6.833,6.833,0,0,0,1.009,1.052c.144.094.283.243.291.333a1.833,1.833,0,0,0,.453.608A41.979,41.979,0,0,1,62,1157.883a5.227,5.227,0,0,0,.883,1.028c.375.317.491.469.472.617s-.067.149-.178,0a.7.7,0,0,0-.291-.223,5.521,5.521,0,0,1-.906-.662c-.412-.348-.9-.735-1.087-.869s-.728-.6-1.217-1.038l-.874-.795.681.906a7.211,7.211,0,0,1,.613.9c-.04-.005-.662-.738-1.386-1.622s-1.372-1.621-1.438-1.643a2.32,2.32,0,0,1-.435-.38c-.167-.187-.5-.533-.733-.769s-.775-.808-1.207-1.262-.932-.965-1.1-1.132c-.619-.636-4.131-4.943-6.806-8.345a30.6,30.6,0,0,0-1.974-2.391c-.054-.007-.086-.128-.068-.262.024-.175-.025-.27-.152-.294a1.23,1.23,0,0,1-.459-.506c-.651-1.12-1.077-1.725-1.161-1.661a5.018,5.018,0,0,0,1,1.865c.23.332.8,1.154,1.261,1.838,1.1,1.6,1.135,1.656,1.494,2.094.171.208.884,1.125,1.583,2.038a18.324,18.324,0,0,0,2.424,2.917c.067.009.133.127.156.266a.429.429,0,0,0,.172.3,5.568,5.568,0,0,1,.782.912c.4.517.7.84.792.831.111-.012.138.039.09.149-.044.131.111.35.725.979.426.446.969,1.046,1.2,1.33a8.154,8.154,0,0,0,.714.807,4.681,4.681,0,0,1,.534.619c.12.173.271.275.325.234s.118-.018.121.065a3.7,3.7,0,0,0,1.114,1.346c.174.037.22.1.21.274a.316.316,0,0,0,.211.323,3.685,3.685,0,0,1,.712.71,3.515,3.515,0,0,0,.627.646,1.724,1.724,0,0,1,.407.375c.148.178.541.565.851.86s.719.671.883.823c.213.2.306.225.288.092s.094-.083.324.139c.2.177.84.735,1.43,1.237,1.348,1.131,1.252,1.037,1.165,1.176-.044.068-.251.034-.47-.077-.25-.122-.352-.129-.265-.015.07.092.073.175,0,.184s-.156-.062-.184-.162a8.218,8.218,0,0,0-1.966-1.418.091.091,0,0,1-.113-.084,2.151,2.151,0,0,0-.586-.481,10.248,10.248,0,0,1-.908-.683c-.189-.168-.366-.288-.4-.26s-.183-.113-.342-.305a12.491,12.491,0,0,0-1.067-1.033c-.436-.379-.9-.8-1.045-.939s-.48-.453-.755-.7-.65-.613-.838-.8a8.035,8.035,0,0,0-.735-.646,4.544,4.544,0,0,1-.635-.577,1.349,1.349,0,0,0-.373-.329,4.883,4.883,0,0,1-.775-.76c-.353-.383-.759-.82-.9-.969-.261-.246-.636-.672-2-2.229-.385-.441-.882-.98-1.1-1.2a8.329,8.329,0,0,1-1.092-1.364,8.7,8.7,0,0,0-.767-.923,48.814,48.814,0,0,1-3.389-4.4c-.061-.159-.135-.224-.2-.177s-.117,0-.125-.085a1.931,1.931,0,0,0-.366-.589c-.429-.529-1.062-1.374-1.352-1.815a7.428,7.428,0,0,0-.737-.838,2.889,2.889,0,0,1-.587-.783.616.616,0,0,0-.259-.369,3.7,3.7,0,0,1-.685-.865c-.43-.673-.527-.768-.649-.676s.117.454,1.831,2.742c1.08,1.444,2.01,2.738,2.046,2.88a5.781,5.781,0,0,0,.746,1.022,3.054,3.054,0,0,1,.609.827c-.1.076,4.59,5.875,4.83,5.967.039.019.468.5.958,1.079s1.172,1.375,1.515,1.776.914,1.053,1.257,1.454a28.374,28.374,0,0,0,2.49,2.782,3.467,3.467,0,0,1,.576.61c.387.491,1.122,1.292,1.9,2.088.12.125.49.53.818.894a16.448,16.448,0,0,0,1.218,1.182c.339.285,1.016.854,1.5,1.267s1.046.893,1.242,1.055.337.346.317.4c-.055.151-.376.047-.68-.242a13.764,13.764,0,0,0-1.313-.879c-.57-.349-1.355-.871-1.742-1.156a24.282,24.282,0,0,1-2.279-1.843c-.07-.092-.167-.138-.2-.11s-.2-.1-.35-.3a11.9,11.9,0,0,0-1.489-1.457c-.275-.249-.767-.718-1.106-1.052a10.172,10.172,0,0,0-.937-.815,5.807,5.807,0,0,1-.756-.7,4.146,4.146,0,0,0-.709-.642,34.291,34.291,0,0,1-2.841-3.02c-.3-.335-.681-.747-.844-.913-.356-.355-2.451-2.872-4.012-4.818-.639-.8-1.215-1.51-1.279-1.594-.065-.069-.445-.566-.839-1.1s-.953-1.214-1.231-1.546a2.259,2.259,0,0,1-.51-.793c.007-.15-.042-.2-.188-.183-.111.013-.2.042-.2.07-.02.1,1.817,2.644,3.906,5.406a67.989,67.989,0,0,0,4.385,5.4c.3.334,1.258,1.393,2.092,2.324.287.313.658.717.828.877s.626.692,1.035,1.164c1.142,1.35,1.82,2.111,2.153,2.435.171.161.589.613.94,1.008a5.888,5.888,0,0,0,.773.774,1.043,1.043,0,0,1,.347.375,1.1,1.1,0,0,0,.353.382,3.9,3.9,0,0,1,.668.684,4.41,4.41,0,0,0,.641.681,2.726,2.726,0,0,1,.546.477,18.367,18.367,0,0,0,2.355,1.943c.413.192.822.663.669.78-.251.192-1.354-.412-2.8-1.529a1.694,1.694,0,0,0-.583-.352c-.055.007-.135-.066-.169-.172a.818.818,0,0,0-.356-.356,4.562,4.562,0,0,1-.531-.379c-.122-.112-.7-.621-1.295-1.123s-1.328-1.169-1.652-1.466-.666-.6-.77-.691-.474-.446-.831-.8-.819-.786-1.04-.981c-.246-.21-.355-.369-.294-.416s.006-.088-.121-.111a1.771,1.771,0,0,1-.567-.473c-.194-.238-.392-.4-.429-.373s-.117-.042-.169-.173a2.34,2.34,0,0,0-.562-.657,7.122,7.122,0,0,1-.878-.911c-.258-.321-.451-.463-.559-.43s-.244-.066-.4-.327a4.735,4.735,0,0,0-.648-.784c-.236-.23-.412-.445-.386-.489s-.074-.161-.234-.244c-.33-.195-.478-.357-2.411-2.758-.835-1.028-1.837-2.228-2.237-2.672s-.754-.86-.815-.923a.139.139,0,0,0-.179-.044c-.053.041-.095-.013-.086-.128a1.372,1.372,0,0,0-.559-.888,1.628,1.628,0,0,1-.375-.522c-.155-.376-1.237-1.445-1.41-1.386a44.5,44.5,0,0,0,2.908,3.912c.031.025,1.053,1.344,2.284,2.939s2.288,2.912,2.346,2.94a2.627,2.627,0,0,1,.465.466c.782.913,1.685,1.9,2.559,2.825.5.532,1.162,1.25,1.464,1.6a20.308,20.308,0,0,0,1.606,1.768c.159.144.52.521.812.84s.654.683.8.811a6.676,6.676,0,0,1,.547.572,1.716,1.716,0,0,0,.395.375,2.876,2.876,0,0,1,.471.474c.188.23.6.661.913.956s.682.639.8.756.49.435.822.713a2.941,2.941,0,0,1,.626.6,2.767,2.767,0,0,0,.592.538,4.684,4.684,0,0,1,.7.62.331.331,0,0,0,.247.15c.207-.013.287.155.127.277-.083.064-.173.073-.214.019a.725.725,0,0,0-.372-.138,8.5,8.5,0,0,1-2.11-1.369c-.21-.165-.658-.5-1-.749s-.658-.5-.732-.563-.3-.244-.49-.387c-.642-.461-3.305-2.821-3.978-3.527-.132-.14-.542-.5-.919-.807s-.967-.854-1.35-1.227c-1.095-1.083-1.944-1.942-2.3-2.325-.18-.188-.516-.548-.744-.783s-.645-.7-.931-1.028-.892-1.008-1.35-1.528-.939-1.069-1.069-1.224a1.938,1.938,0,0,0-.295-.305c-.171-.1-3.935-4.877-4.566-5.8-.533-.776-.741-1.017-.832-.946a3.418,3.418,0,0,0,.665,1.122c1.112,1.517,4.55,6.074,5.337,7.041.37.468.849,1.079,1.065,1.36a3.373,3.373,0,0,0,.5.56c.06.015.076.1.051.178s.008.152.113.179c.206.048.746.613,1.914,1.966.458.519.894.995.976,1.054a8.738,8.738,0,0,1,.707.75c.3.348.674.754.825.9s.566.581.905.961a8.375,8.375,0,0,0,.7.73,12.96,12.96,0,0,1,.89.974,11.425,11.425,0,0,0,1.907,2.019.625.625,0,0,1,.285.23,20.708,20.708,0,0,0,2.358,2.278,12.393,12.393,0,0,0,1.814,1.439c.284.182.435.333.4.417-.064.17-.493.161-.512-.006,0-.07-.05-.1-.1-.061a3.824,3.824,0,0,1-1.586-.684c-.412-.287-1.775-1.311-2.033-1.537-.081-.058-.559-.478-1.075-.916s-1.079-.938-1.245-1.123a2.344,2.344,0,0,0-.43-.373,3.187,3.187,0,0,1-.443-.374c-.182-.176-.462-.432-.616-.568a1.727,1.727,0,0,1-.309-.294c-.016-.037-.483-.49-1.05-1.009s-1.266-1.182-1.57-1.469-.732-.672-.959-.86a30.772,30.772,0,0,1-3.074-3.338,11.335,11.335,0,0,0-1.266-1.339c-.123-.051-.182-.127-.136-.162a23.238,23.238,0,0,0-2.795-3.417.153.153,0,0,1-.085-.19.142.142,0,0,0-.071-.187,8.657,8.657,0,0,1-.977-1.088c-.471-.569-.962-1.148-1.1-1.276s-.213-.247-.175-.276a5.785,5.785,0,0,0-.751-1.092c-.722-.944-.813-1.032-.973-.91-.137.105-.126.168.056.295a8.251,8.251,0,0,1,.972,1.177c2.073,2.884,5.856,7.671,7.986,10.124a7.6,7.6,0,0,1,1.058,1.3,21.214,21.214,0,0,0,2.234,2.447c.529.549,1.016,1.06,1.066,1.141.152.2,1.525,1.709,1.743,1.916.471.426,1.386,1.369,2.013,2.047.192.2.74.715,1.231,1.136.861.729,1.321,1.08,2.5,1.927a1.89,1.89,0,0,1,.548.512c-.028.215-.72.163-1-.071a5,5,0,0,0-.751-.476,11.249,11.249,0,0,1-1.749-1.1c-.186-.148-.669-.527-1.065-.84s-1.192-.973-1.749-1.465-1.081-.924-1.175-.984a.989.989,0,0,1-.229-.236,5.415,5.415,0,0,0-.79-.687,6.517,6.517,0,0,1-.946-.825,3.451,3.451,0,0,0-.885-.9,5.368,5.368,0,0,1-1.12-1.038,6.6,6.6,0,0,0-.8-.743c-.272-.214-.366-.336-.324-.44s.011-.129-.076-.1c-.064.026-.432-.3-.815-.718a35.7,35.7,0,0,1-2.83-3.716,9.564,9.564,0,0,0-1.16-1.406c-.13-.059-.193-.142-.162-.228a.128.128,0,0,0-.045-.17,6.807,6.807,0,0,1-.734-.754,10.767,10.767,0,0,0-.944-.933,3.238,3.238,0,0,1-.41-.363c-.526-.672-.856-1.024-.967-1.011-.146.014-.278-.174,2.532,3.594,1.277,1.718,2.355,3.174,2.39,3.22.119.187,1.682,2.011,2.184,2.556.268.3.911,1.032,1.419,1.633a8.97,8.97,0,0,0,1.122,1.183,1.524,1.524,0,0,1,.449.43c.22.3,1.037,1.213,1.631,1.832.146.143.5.477.8.742s.847.839,1.209,1.25a8.717,8.717,0,0,0,.761.806,5.015,5.015,0,0,1,.65.566,18.122,18.122,0,0,0,2.577,2.122,2.023,2.023,0,0,1,.369.213,3.021,3.021,0,0,0,.4.272c.4.239.4.246.184.415a.617.617,0,0,1-.491.038,25.424,25.424,0,0,1-4.479-2.746,1.959,1.959,0,0,0-.375-.317c-.337-.25-2.441-2.166-3.461-3.151-.285-.278-1.068-1.175-1.732-2s-1.6-1.87-2.077-2.336-.946-.954-1.054-1.078c-.532-.68-1.783-2.126-2.123-2.459-.218-.207-.66-.642-1-.975-.629-.617-1.3-1.343-1.969-2.117-.213-.247-.746-.864-1.179-1.367a7.674,7.674,0,0,1-.939-1.275c-.09-.244-.2-.368-.287-.36s-.263-.185-.419-.453a1.56,1.56,0,0,0-.594-.62,1.694,1.694,0,0,1-.546-.477c-.12-.173-.249-.293-.279-.269s-.122-.064-.186-.2c-.1-.2-.115-.214-.112-.036a2.685,2.685,0,0,0,.564.849,7.857,7.857,0,0,1,.882,1.247,2.664,2.664,0,0,0,.666.854c.188.135,1.386,1.575,2.673,3.21s2.7,3.405,3.151,3.93,1.141,1.349,1.549,1.835,1.1,1.269,1.561,1.74c1.045,1.1,1.22,1.278,2.689,2.931.662.738,1.311,1.461,1.464,1.6s.6.615,1.017,1.045c.413.446,1.358,1.318,2.1,1.944l1.714,1.467c.2.177.524.432.718.575a1.2,1.2,0,0,1,.343.292c-.008.115-.652.063-.739-.051-.058-.077-.142-.122-.191-.107a8.123,8.123,0,0,1-2.405-1.313c-.76-.71-.975-.9-1.8-1.575-.42-.342-1.092-.938-1.5-1.342a12.438,12.438,0,0,0-1.072-.991,13.294,13.294,0,0,1-2.176-2.261c-.331-.448-1.056-1.318-1.611-1.932s-1.282-1.423-1.61-1.788-.845-.9-1.138-1.172-.811-.792-1.16-1.154-1.093-1.144-1.679-1.736-1.1-1.139-1.164-1.223-.695-.845-1.415-1.708-1.627-1.968-2.013-2.458c-.766-.97-1.293-1.438-1.265-1.133a.307.307,0,0,0,.14.231,11.535,11.535,0,0,1,1.513,1.994c.211.323.429.577.485.571a2.834,2.834,0,0,1,.692.716c1.192,1.479,1.592,2.066,1.574,2.31-.017.182.1.37.5.764.624.611,1.26,1.331,2.624,2.957.556.663,1.126,1.314,1.265,1.448s.7.771,1.23,1.4,1.271,1.456,1.637,1.839.849.873,1.045,1.1c.915.99,2.833,2.978,3.356,3.471.881.836,1.573,1.5,2.071,2.029a3.562,3.562,0,0,0,.594.524,2.708,2.708,0,0,1,.521.507,6.269,6.269,0,0,0,1.135.93c.606.383.7.477.546.525a1.33,1.33,0,0,0-.353.185c-.107.082-.372.02-.724-.172a18.671,18.671,0,0,1-2.863-1.927,4.22,4.22,0,0,0-.685-.612,5.329,5.329,0,0,1-.813-.731,1.819,1.819,0,0,0-.453-.4,10.456,10.456,0,0,1-2.106-2.073c-1.766-2.152-2.65-3.166-3.573-4.1-.531-.536-1.18-1.211-1.463-1.5a12.556,12.556,0,0,0-1.228-1.211c-.069-.043-.088-.114-.027-.161s.034-.1-.112-.131a1.121,1.121,0,0,1-.472-.365,1.516,1.516,0,0,0-.376-.365.778.778,0,0,1-.292-.224c-.089-.1-.329-.352-.541-.564s-.682-.734-1.045-1.145a6.416,6.416,0,0,0-.764-.793.7.7,0,0,1-.2-.341,1.431,1.431,0,0,0-.452-.608,8.314,8.314,0,0,1-.875-.938c-.281-.352-.541-.612-.586-.578s.087.271.293.525a1.69,1.69,0,0,1,.36.581c-.009.067-.173-.085-.36-.329-.215-.281-.357-.4-.389-.319s.152.357.443.689c.268.3.851.955,1.283,1.458s.879,1.007.993,1.125c.392.4,1.966,2.191,2.009,2.279.022.045.164.31.321.578a2.772,2.772,0,0,1,.289.551c0,.04.125.148.283.243a16.241,16.241,0,0,1,1.733,1.983c.8,1,1.5,1.835,1.566,1.858a8.314,8.314,0,0,1,.845.9c.39.463.965,1.087,1.268,1.373a3.268,3.268,0,0,1,.566.63,36.838,36.838,0,0,0,3.474,3.405c.088.067.338.3.554.518a2.6,2.6,0,0,0,.514.466,2.088,2.088,0,0,1,.4.334,7.365,7.365,0,0,0,.771.63l.487.351-.3.132c-.423.19-.812.076-1.383-.4-.263-.234-.78-.624-1.129-.876a2.607,2.607,0,0,1-.663-.581.794.794,0,0,0-.329-.3,19.213,19.213,0,0,1-2.122-1.891,3.539,3.539,0,0,0-.394-.326c-.047-.013-.592-.647-1.216-1.4s-1.376-1.641-1.67-1.961-.674-.74-.855-.929-.888-.877-1.578-1.511-1.442-1.348-1.677-1.591c-.77-.8-1.174-1.2-1.66-1.665-.275-.249-1.288-1.478-2.257-2.73s-1.924-2.4-2.114-2.574a2.156,2.156,0,0,1-.478-.625,1.734,1.734,0,0,0-.425-.556,1.136,1.136,0,0,1-.315-.412c0-.083-.218-.316-.47-.52-.273-.215-.457-.425-.457-.534,0-.185-.3-.424-.421-.331-.2.152.306.937.713,1.122.168.077.209.13.132.188-.061.047.053.274.286.579a9.578,9.578,0,0,1,.634.892,2.317,2.317,0,0,0,.516.6c.311.232.4.607.2.765-.107.082-.032.242.324.707a1.569,1.569,0,0,1,.459.978,2.387,2.387,0,0,0,.573,1.65,6.1,6.1,0,0,0,1.847.93,1.953,1.953,0,0,1,.546.525c.241.3.6.716.791.94s.422.487.5.573c.107.125.183.113.285-.037s.158-.157.2-.02a5.662,5.662,0,0,0,.8.948c.41.41,1.2,1.255,1.756,1.869,1,1.106,1.475,1.661,3.552,4.155a22.8,22.8,0,0,0,1.585,1.771c.287.264.744.736,1.011,1.038a14.475,14.475,0,0,0,1.193,1.165c.381.325.833.727,1,.893a1.193,1.193,0,0,0,.464.322c.277.03.282.147,0,.255a1.174,1.174,0,0,1-1.183-.111,1.549,1.549,0,0,0-.431-.263,1.792,1.792,0,0,1-.489-.387,6.52,6.52,0,0,0-.7-.586,7.76,7.76,0,0,1-.81-.744,5.038,5.038,0,0,0-.713-.663,7.915,7.915,0,0,1-1.587-1.648c-1.306-1.755-2.386-3.151-2.519-3.229a4.808,4.808,0,0,1-.517-.488c-.66-.7-2.177-2.152-2.5-2.386a13.377,13.377,0,0,1-1.329-1.326,12.618,12.618,0,0,0-1.147-1.152,5.8,5.8,0,0,1-.757-.786,3.168,3.168,0,0,0-.814-.779,4.015,4.015,0,0,1-1.137-1.425.248.248,0,0,0-.2-.2c-.268-.036-.679-.6-.565-.787.069-.114-.11-.411-.719-1.238-.454-.594-1.083-1.479-1.408-1.967-.6-.908-1.067-1.395-1.219-1.278-.122.093.254.773.923,1.663a3.114,3.114,0,0,1,.529.85c-.076.058,2.278,3.042,3.7,4.716.5.573,1.143,1.337,1.438,1.691s.712.82.931,1.027c.622.624,5.078,6.055,7.163,8.749.152.2.3.341.327.317a5.838,5.838,0,0,1,.956.887c.493.518,1.063,1.107,1.269,1.312a3.831,3.831,0,0,0,.633.543,2.134,2.134,0,0,1,.445.408c.146.191.143.266-.055.368-.3.173-1.123-.2-1.793-.827-.28-.256-.807-.723-1.17-1.025s-.745-.626-.842-.721c-.1-.08-.593-.524-1.1-.968a16.215,16.215,0,0,1-2.384-2.706c-1.511-1.959-2.779-3.428-5-5.825a4.292,4.292,0,0,0-.577-.549c-.044-.026-.591-.6-1.2-1.282s-1.334-1.492-1.6-1.787-.793-.927-1.174-1.409-.724-.835-.777-.793-.117-.044-.162-.166a11.624,11.624,0,0,0-1.443-2.013c-.228-.03.342,1.031,1.15,2.1.585.8.856,1.23.815,1.334-.045.13-.008.162.156.158s.184,0,.085.08-.019.2.306.526c.242.238.941,1.1,1.569,1.941s1.209,1.612,1.307,1.741c.686.913,4.587,5.792,4.946,6.182.244.273.862.984,1.383,1.587a16.545,16.545,0,0,0,1.283,1.362,9.637,9.637,0,0,1,.952.975,5.089,5.089,0,0,0,.774.76c.19.074.233.114,1.106,1,1.006,1.032,1.04,1.077.773,1.185a2.687,2.687,0,0,1-1.512-.777,8.239,8.239,0,0,0-.81-.7,16.386,16.386,0,0,1-2.12-1.966,2.14,2.14,0,0,0-.629-.57,5.792,5.792,0,0,1-.663-.629c-.27-.289-.654-.682-.835-.871a25.2,25.2,0,0,1-2.17-2.568c-1.459-1.939-2.04-2.667-2.465-3.113-.237-.23-.6-.607-.794-.817s-.488-.5-.634-.64-.574-.623-.966-1.073A16.85,16.85,0,0,0,24.392,1164c-.8-.694-1.195-1.151-1.22-1.374-.008-.089-.065-.131-.118-.091-.069.053-.431-.359-1.086-1.246-1.382-1.854-1.561-2.056-1.647-1.869-.037.077-.025-.017.023-.222s.022-.38-.044-.389-.126.072-.121.189c.019.166-.008.163-.136,0-.095-.108-.213-.2-.282-.195s.2.417.584.906a3.62,3.62,0,0,1,.641.934c-.038.029.087.225.271.434a16.549,16.549,0,0,1,1.867,2.424c.014.1.063.146.109.11a14.054,14.054,0,0,1,1.582,1.99c.828,1.131,1.6,2.171,1.718,2.309a14.613,14.613,0,0,1,.96,1.271,2.412,2.412,0,0,0,.584.653c.111.036.132.079.056.137s-.049.11.022.141a1.881,1.881,0,0,1,.463.479c.18.236.364.4.41.362s.15.1.241.3a4.432,4.432,0,0,0,.6.867c.237.279.757.9,1.158,1.373a29.094,29.094,0,0,0,4.375,4.5c.429.386.978.883,1.214,1.113a7,7,0,0,0,.659.546c.172.1.173.133,0,.185a1.848,1.848,0,0,0-.252.1,5.107,5.107,0,0,1-1.293-.725,2.69,2.69,0,0,0-.46-.35,12.984,12.984,0,0,1-1.565-1.3c-.139-.134-.475-.446-.738-.679a5.021,5.021,0,0,1-.52-.508,3.108,3.108,0,0,0-.4-.408c-.2-.185-.474-.446-.619-.589s-.646-.639-1.138-1.109a5.018,5.018,0,0,1-1.022-1.211,1.024,1.024,0,0,0-.186-.353c-.032-.01-.761-.868-1.613-1.919-2.382-2.924-3.369-4.089-3.479-4.138a6.314,6.314,0,0,1-.785-.836,10.839,10.839,0,0,0-.862-.923,5.157,5.157,0,0,1-.612-.595c-1.03-1.11-1.376-1.484-1.923-2.1-1.154-1.3-.69-.474.985,1.746,3.355,4.45,5.883,7.723,7.2,9.328a33.2,33.2,0,0,0,2.227,2.6,9.181,9.181,0,0,1,.6.71,3.1,3.1,0,0,0,.814.765c.16.035.2.081.126.134-.122.093.57.87,1.6,1.794,1.236,1.1,1.194,1.056,1.034,1.178a.212.212,0,0,1-.278-.065.509.509,0,0,0-.255-.191.448.448,0,0,1-.188-.073,2.675,2.675,0,0,0-.384-.25,3.489,3.489,0,0,1-.669-.575,2.465,2.465,0,0,0-.452-.416,14.527,14.527,0,0,1-1.841-1.588,9.712,9.712,0,0,0-1.486-1.436,5.116,5.116,0,0,1-.817-.8,12.024,12.024,0,0,0-.884-.919c-.146-.129-.738-.727-1.316-1.325-1.52-1.578-1.833-1.907-2.279-2.411-.221-.242-.655-.73-.966-1.073-.547-.619-3.194-3.764-4.2-4.979-.094-.122-.217-.173-.27-.132-.145.111,6.554,8.7,6.9,8.852a.466.466,0,0,1,.268.3,7.562,7.562,0,0,0,1.13,1.478c.008-.006.251.28.553.628,1.26,1.489,1.6,1.836,1.855,1.951.148.068.231.161.186.2s.011.173.145.3.448.492.723.788.7.73.95.941.586.53.76.71c.314.316.319.323-.013.347a1.061,1.061,0,0,1-.634-.228c-.166-.138-.334-.263-.365-.288-.215-.138-.982-.732-1.128-.876-.091-.086-.484-.474-.866-.847s-.943-.885-1.264-1.147a44.813,44.813,0,0,1-3.257-3.089c-.262-.3-.913-1.052-1.452-1.679a7.162,7.162,0,0,0-1.244-1.247c-.339-.126-.886-.7-2.373-2.485a19.418,19.418,0,0,0-1.5-1.678c-.166-.139-.3-.292-.276-.345a10.09,10.09,0,0,0-1.015-1.373c-.577-.707-1.382-1.745-1.794-2.3a9.515,9.515,0,0,0-.938-1.132c-.368-.26-.32-.007.109.522a3.194,3.194,0,0,1,.48.755c.025.127.1.212.193.2a18.762,18.762,0,0,1,2.451,3.33,1.3,1.3,0,0,0,.308.513c.148.178.522.6.832.945.309.357,1.4,1.706,2.445,3.022s1.92,2.385,1.975,2.392.1.095.089.2.224.372.606.7a4.82,4.82,0,0,1,.842.913,1.419,1.419,0,0,0,.333.435,7.184,7.184,0,0,1,.874.938,31.614,31.614,0,0,0,2.158,2.394c.1.09.34.32.521.507s.432.407.525.481c.163.117.152.136-.072.175s-.583-.193-1.218-.819c-.1-.095-.481-.44-.861-.779a15.062,15.062,0,0,1-1.1-1.042c-.221-.242-.651-.661-.95-.941-.835-.76-2.325-2.219-2.736-2.678-.21-.226-.626-.644-.943-.932-.608-.574-.948-.906-1.535-1.533-.211-.213-.511-.527-.682-.686s-.534-.557-.82-.882-.543-.6-.576-.61a47.833,47.833,0,0,1-3.6-4.12,2.2,2.2,0,0,0-.687-.646c-.116.006-.138-.038-.1-.15s-.13-.407-.524-.89c-.47-.583-.605-.7-.71-.581-.114.136-.1.172,1.54,2.409.481.66,1.593,2.129,1.845,2.442l.763,1a22.9,22.9,0,0,0,1.7,2.094c.475.557,1.006,1.19,1.167,1.415a2.008,2.008,0,0,0,.527.515c.162.069.224.167.215.282s.093.28.29.443a1.851,1.851,0,0,1,.42.438c.056.1.136.162.182.127s.308.26.591.647a7.713,7.713,0,0,0,.91,1.032c.215.185.659.656,1,1.043a27,27,0,0,0,1.936,2.105c.282.243.282.243-.063.218a.733.733,0,0,1-.485-.209,1.078,1.078,0,0,0-.379-.289,2.311,2.311,0,0,1-.516-.39c-.151-.15-.464-.432-.7-.628a41.178,41.178,0,0,1-3.459-3.622c-.433-.5-1.308-1.426-1.95-2.059-1.342-1.328-1.318-1.3-5.041-6.133-1.558-2.021-2.87-3.674-2.924-3.681s-.168.08-.259.2c-.157.206-.13.257.528,1.021.378.448.716.841.758.88a16.263,16.263,0,0,1,1.332,1.869,4.035,4.035,0,0,1-.58-.632c-.341-.415-.555-.6-.669-.575-.086.03-.263-.076-.386-.236s-.259-.26-.313-.22c-.122.093.611.91.947,1.064.2.089.241.141.164.2a8.244,8.244,0,0,0,1.656,2.054c.219.208,1.106,1.257,3.134,3.7.549.654,1.03,1.2,1.081,1.224a8.76,8.76,0,0,1,.868.944,29.985,29.985,0,0,0,2.3,2.564,7.034,7.034,0,0,1,1.332,1.662c-.16.123-.345-.024-.371-.295-.021-.2-.111-.3-.424-.474-.721-.391-.8-.449-2.032-1.756-2.046-2.154-2.845-3.041-5.261-5.867m84.458-56.862c-.006.054-.071.018-.144-.094s-.076-.148.013-.095.147.13.132.189m1.4,4.375a.234.234,0,0,1,.132.189c-.007.053-.071.018-.152-.088s-.069-.153.02-.1m-.791-.734c-.286-.326-.242-.4.077-.12.122.113.213.247.187.292s-.133-.031-.264-.172m-8.355,3.793c-.007.053-.071.018-.152-.089s-.069-.153.02-.1a.233.233,0,0,1,.132.188m-2.33-2.337c.059.077.065.181.012.22a.116.116,0,0,1-.162-.021.274.274,0,0,1-.019-.215c.03-.07.1-.067.168.016m-26.43,40.338c-.006.054-.071.018-.144-.094s-.077-.148.013-.095.147.13.132.188m.292.381c-.006.054-.071.018-.144-.094s-.076-.147.013-.095.148.13.132.189m-5.565,7.725c-.008.053-.072.017-.14-.087-.088-.115-.082-.156.006-.1s.148.129.133.189m-.529-.5c-.008.053-.071.017-.146-.081-.081-.121-.076-.161.013-.109a.241.241,0,0,1,.133.19M35.1,1169.437c.094.123.133.237.087.272-.137.1-.641-.379-.673-.643-.032-.216-.012-.221.189-.037a3.01,3.01,0,0,1,.4.408m-3.566-.3c.162.275.149.272-.148-.02-.18-.188-.258-.322-.171-.3s.226.153.319.323m-3.419-.331c.038.128.023.14-.114.087-.183-.066-.21-.274-.043-.245.063,0,.128.071.157.159m.6.832c-.007.054-.071.018-.139-.087-.088-.115-.082-.156.006-.1s.148.129.133.188m-8.359,4.593c-.175-.119-.388-.428-.327-.474.045-.035.157.049.257.178.152.2.19.375.07.3m.367.275c.128.168.093.232-.09.167a.143.143,0,0,1-.071-.188c.03-.071.1-.062.16.021" transform="translate(-1.389 -1084.576)" fill="#797c70"/>
</svg>
